%TF.GenerationSoftware,KiCad,Pcbnew,7.0.10*%
%TF.CreationDate,2024-12-18T16:05:22+01:00*%
%TF.ProjectId,transmitter,7472616e-736d-4697-9474-65722e6b6963,rev?*%
%TF.SameCoordinates,Original*%
%TF.FileFunction,Legend,Top*%
%TF.FilePolarity,Positive*%
%FSLAX46Y46*%
G04 Gerber Fmt 4.6, Leading zero omitted, Abs format (unit mm)*
G04 Created by KiCad (PCBNEW 7.0.10) date 2024-12-18 16:05:22*
%MOMM*%
%LPD*%
G01*
G04 APERTURE LIST*
%ADD10C,0.150000*%
%ADD11C,0.100000*%
%ADD12C,0.120000*%
%ADD13C,0.127000*%
%ADD14C,0.200000*%
G04 APERTURE END LIST*
D10*
X212824600Y-55000000D02*
X215850000Y-55000000D01*
X215850000Y-64000000D01*
X212824600Y-64000000D01*
X212824600Y-55000000D01*
X156460588Y-75169819D02*
X155889160Y-75169819D01*
X156174874Y-75169819D02*
X156174874Y-74169819D01*
X156174874Y-74169819D02*
X156079636Y-74312676D01*
X156079636Y-74312676D02*
X155984398Y-74407914D01*
X155984398Y-74407914D02*
X155889160Y-74455533D01*
X157079636Y-74169819D02*
X157174874Y-74169819D01*
X157174874Y-74169819D02*
X157270112Y-74217438D01*
X157270112Y-74217438D02*
X157317731Y-74265057D01*
X157317731Y-74265057D02*
X157365350Y-74360295D01*
X157365350Y-74360295D02*
X157412969Y-74550771D01*
X157412969Y-74550771D02*
X157412969Y-74788866D01*
X157412969Y-74788866D02*
X157365350Y-74979342D01*
X157365350Y-74979342D02*
X157317731Y-75074580D01*
X157317731Y-75074580D02*
X157270112Y-75122200D01*
X157270112Y-75122200D02*
X157174874Y-75169819D01*
X157174874Y-75169819D02*
X157079636Y-75169819D01*
X157079636Y-75169819D02*
X156984398Y-75122200D01*
X156984398Y-75122200D02*
X156936779Y-75074580D01*
X156936779Y-75074580D02*
X156889160Y-74979342D01*
X156889160Y-74979342D02*
X156841541Y-74788866D01*
X156841541Y-74788866D02*
X156841541Y-74550771D01*
X156841541Y-74550771D02*
X156889160Y-74360295D01*
X156889160Y-74360295D02*
X156936779Y-74265057D01*
X156936779Y-74265057D02*
X156984398Y-74217438D01*
X156984398Y-74217438D02*
X157079636Y-74169819D01*
X158032017Y-74169819D02*
X158127255Y-74169819D01*
X158127255Y-74169819D02*
X158222493Y-74217438D01*
X158222493Y-74217438D02*
X158270112Y-74265057D01*
X158270112Y-74265057D02*
X158317731Y-74360295D01*
X158317731Y-74360295D02*
X158365350Y-74550771D01*
X158365350Y-74550771D02*
X158365350Y-74788866D01*
X158365350Y-74788866D02*
X158317731Y-74979342D01*
X158317731Y-74979342D02*
X158270112Y-75074580D01*
X158270112Y-75074580D02*
X158222493Y-75122200D01*
X158222493Y-75122200D02*
X158127255Y-75169819D01*
X158127255Y-75169819D02*
X158032017Y-75169819D01*
X158032017Y-75169819D02*
X157936779Y-75122200D01*
X157936779Y-75122200D02*
X157889160Y-75074580D01*
X157889160Y-75074580D02*
X157841541Y-74979342D01*
X157841541Y-74979342D02*
X157793922Y-74788866D01*
X157793922Y-74788866D02*
X157793922Y-74550771D01*
X157793922Y-74550771D02*
X157841541Y-74360295D01*
X157841541Y-74360295D02*
X157889160Y-74265057D01*
X157889160Y-74265057D02*
X157936779Y-74217438D01*
X157936779Y-74217438D02*
X158032017Y-74169819D01*
X158793922Y-74503152D02*
X158793922Y-75169819D01*
X158793922Y-74598390D02*
X158841541Y-74550771D01*
X158841541Y-74550771D02*
X158936779Y-74503152D01*
X158936779Y-74503152D02*
X159079636Y-74503152D01*
X159079636Y-74503152D02*
X159174874Y-74550771D01*
X159174874Y-74550771D02*
X159222493Y-74646009D01*
X159222493Y-74646009D02*
X159222493Y-75169819D01*
X215130180Y-58336779D02*
X214320657Y-58336779D01*
X214320657Y-58336779D02*
X214225419Y-58384398D01*
X214225419Y-58384398D02*
X214177800Y-58432017D01*
X214177800Y-58432017D02*
X214130180Y-58527255D01*
X214130180Y-58527255D02*
X214130180Y-58717731D01*
X214130180Y-58717731D02*
X214177800Y-58812969D01*
X214177800Y-58812969D02*
X214225419Y-58860588D01*
X214225419Y-58860588D02*
X214320657Y-58908207D01*
X214320657Y-58908207D02*
X215130180Y-58908207D01*
X214177800Y-59336779D02*
X214130180Y-59479636D01*
X214130180Y-59479636D02*
X214130180Y-59717731D01*
X214130180Y-59717731D02*
X214177800Y-59812969D01*
X214177800Y-59812969D02*
X214225419Y-59860588D01*
X214225419Y-59860588D02*
X214320657Y-59908207D01*
X214320657Y-59908207D02*
X214415895Y-59908207D01*
X214415895Y-59908207D02*
X214511133Y-59860588D01*
X214511133Y-59860588D02*
X214558752Y-59812969D01*
X214558752Y-59812969D02*
X214606371Y-59717731D01*
X214606371Y-59717731D02*
X214653990Y-59527255D01*
X214653990Y-59527255D02*
X214701609Y-59432017D01*
X214701609Y-59432017D02*
X214749228Y-59384398D01*
X214749228Y-59384398D02*
X214844466Y-59336779D01*
X214844466Y-59336779D02*
X214939704Y-59336779D01*
X214939704Y-59336779D02*
X215034942Y-59384398D01*
X215034942Y-59384398D02*
X215082561Y-59432017D01*
X215082561Y-59432017D02*
X215130180Y-59527255D01*
X215130180Y-59527255D02*
X215130180Y-59765350D01*
X215130180Y-59765350D02*
X215082561Y-59908207D01*
X214653990Y-60670112D02*
X214606371Y-60812969D01*
X214606371Y-60812969D02*
X214558752Y-60860588D01*
X214558752Y-60860588D02*
X214463514Y-60908207D01*
X214463514Y-60908207D02*
X214320657Y-60908207D01*
X214320657Y-60908207D02*
X214225419Y-60860588D01*
X214225419Y-60860588D02*
X214177800Y-60812969D01*
X214177800Y-60812969D02*
X214130180Y-60717731D01*
X214130180Y-60717731D02*
X214130180Y-60336779D01*
X214130180Y-60336779D02*
X215130180Y-60336779D01*
X215130180Y-60336779D02*
X215130180Y-60670112D01*
X215130180Y-60670112D02*
X215082561Y-60765350D01*
X215082561Y-60765350D02*
X215034942Y-60812969D01*
X215034942Y-60812969D02*
X214939704Y-60860588D01*
X214939704Y-60860588D02*
X214844466Y-60860588D01*
X214844466Y-60860588D02*
X214749228Y-60812969D01*
X214749228Y-60812969D02*
X214701609Y-60765350D01*
X214701609Y-60765350D02*
X214653990Y-60670112D01*
X214653990Y-60670112D02*
X214653990Y-60336779D01*
X166360588Y-75169819D02*
X165789160Y-75169819D01*
X166074874Y-75169819D02*
X166074874Y-74169819D01*
X166074874Y-74169819D02*
X165979636Y-74312676D01*
X165979636Y-74312676D02*
X165884398Y-74407914D01*
X165884398Y-74407914D02*
X165789160Y-74455533D01*
X166979636Y-74169819D02*
X167074874Y-74169819D01*
X167074874Y-74169819D02*
X167170112Y-74217438D01*
X167170112Y-74217438D02*
X167217731Y-74265057D01*
X167217731Y-74265057D02*
X167265350Y-74360295D01*
X167265350Y-74360295D02*
X167312969Y-74550771D01*
X167312969Y-74550771D02*
X167312969Y-74788866D01*
X167312969Y-74788866D02*
X167265350Y-74979342D01*
X167265350Y-74979342D02*
X167217731Y-75074580D01*
X167217731Y-75074580D02*
X167170112Y-75122200D01*
X167170112Y-75122200D02*
X167074874Y-75169819D01*
X167074874Y-75169819D02*
X166979636Y-75169819D01*
X166979636Y-75169819D02*
X166884398Y-75122200D01*
X166884398Y-75122200D02*
X166836779Y-75074580D01*
X166836779Y-75074580D02*
X166789160Y-74979342D01*
X166789160Y-74979342D02*
X166741541Y-74788866D01*
X166741541Y-74788866D02*
X166741541Y-74550771D01*
X166741541Y-74550771D02*
X166789160Y-74360295D01*
X166789160Y-74360295D02*
X166836779Y-74265057D01*
X166836779Y-74265057D02*
X166884398Y-74217438D01*
X166884398Y-74217438D02*
X166979636Y-74169819D01*
X167932017Y-74169819D02*
X168027255Y-74169819D01*
X168027255Y-74169819D02*
X168122493Y-74217438D01*
X168122493Y-74217438D02*
X168170112Y-74265057D01*
X168170112Y-74265057D02*
X168217731Y-74360295D01*
X168217731Y-74360295D02*
X168265350Y-74550771D01*
X168265350Y-74550771D02*
X168265350Y-74788866D01*
X168265350Y-74788866D02*
X168217731Y-74979342D01*
X168217731Y-74979342D02*
X168170112Y-75074580D01*
X168170112Y-75074580D02*
X168122493Y-75122200D01*
X168122493Y-75122200D02*
X168027255Y-75169819D01*
X168027255Y-75169819D02*
X167932017Y-75169819D01*
X167932017Y-75169819D02*
X167836779Y-75122200D01*
X167836779Y-75122200D02*
X167789160Y-75074580D01*
X167789160Y-75074580D02*
X167741541Y-74979342D01*
X167741541Y-74979342D02*
X167693922Y-74788866D01*
X167693922Y-74788866D02*
X167693922Y-74550771D01*
X167693922Y-74550771D02*
X167741541Y-74360295D01*
X167741541Y-74360295D02*
X167789160Y-74265057D01*
X167789160Y-74265057D02*
X167836779Y-74217438D01*
X167836779Y-74217438D02*
X167932017Y-74169819D01*
X168693922Y-74503152D02*
X168693922Y-75169819D01*
X168693922Y-74598390D02*
X168741541Y-74550771D01*
X168741541Y-74550771D02*
X168836779Y-74503152D01*
X168836779Y-74503152D02*
X168979636Y-74503152D01*
X168979636Y-74503152D02*
X169074874Y-74550771D01*
X169074874Y-74550771D02*
X169122493Y-74646009D01*
X169122493Y-74646009D02*
X169122493Y-75169819D01*
X113789160Y-75492200D02*
X113932017Y-75539819D01*
X113932017Y-75539819D02*
X114170112Y-75539819D01*
X114170112Y-75539819D02*
X114265350Y-75492200D01*
X114265350Y-75492200D02*
X114312969Y-75444580D01*
X114312969Y-75444580D02*
X114360588Y-75349342D01*
X114360588Y-75349342D02*
X114360588Y-75254104D01*
X114360588Y-75254104D02*
X114312969Y-75158866D01*
X114312969Y-75158866D02*
X114265350Y-75111247D01*
X114265350Y-75111247D02*
X114170112Y-75063628D01*
X114170112Y-75063628D02*
X113979636Y-75016009D01*
X113979636Y-75016009D02*
X113884398Y-74968390D01*
X113884398Y-74968390D02*
X113836779Y-74920771D01*
X113836779Y-74920771D02*
X113789160Y-74825533D01*
X113789160Y-74825533D02*
X113789160Y-74730295D01*
X113789160Y-74730295D02*
X113836779Y-74635057D01*
X113836779Y-74635057D02*
X113884398Y-74587438D01*
X113884398Y-74587438D02*
X113979636Y-74539819D01*
X113979636Y-74539819D02*
X114217731Y-74539819D01*
X114217731Y-74539819D02*
X114360588Y-74587438D01*
X114693922Y-74873152D02*
X115217731Y-74873152D01*
X115217731Y-74873152D02*
X114693922Y-75539819D01*
X114693922Y-75539819D02*
X115217731Y-75539819D01*
X115503446Y-74873152D02*
X115741541Y-75539819D01*
X115979636Y-74873152D02*
X115741541Y-75539819D01*
X115741541Y-75539819D02*
X115646303Y-75777914D01*
X115646303Y-75777914D02*
X115598684Y-75825533D01*
X115598684Y-75825533D02*
X115503446Y-75873152D01*
X116360589Y-75539819D02*
X116360589Y-74873152D01*
X116360589Y-74968390D02*
X116408208Y-74920771D01*
X116408208Y-74920771D02*
X116503446Y-74873152D01*
X116503446Y-74873152D02*
X116646303Y-74873152D01*
X116646303Y-74873152D02*
X116741541Y-74920771D01*
X116741541Y-74920771D02*
X116789160Y-75016009D01*
X116789160Y-75016009D02*
X116789160Y-75539819D01*
X116789160Y-75016009D02*
X116836779Y-74920771D01*
X116836779Y-74920771D02*
X116932017Y-74873152D01*
X116932017Y-74873152D02*
X117074874Y-74873152D01*
X117074874Y-74873152D02*
X117170113Y-74920771D01*
X117170113Y-74920771D02*
X117217732Y-75016009D01*
X117217732Y-75016009D02*
X117217732Y-75539819D01*
X117836779Y-75539819D02*
X117741541Y-75492200D01*
X117741541Y-75492200D02*
X117693922Y-75444580D01*
X117693922Y-75444580D02*
X117646303Y-75349342D01*
X117646303Y-75349342D02*
X117646303Y-75063628D01*
X117646303Y-75063628D02*
X117693922Y-74968390D01*
X117693922Y-74968390D02*
X117741541Y-74920771D01*
X117741541Y-74920771D02*
X117836779Y-74873152D01*
X117836779Y-74873152D02*
X117979636Y-74873152D01*
X117979636Y-74873152D02*
X118074874Y-74920771D01*
X118074874Y-74920771D02*
X118122493Y-74968390D01*
X118122493Y-74968390D02*
X118170112Y-75063628D01*
X118170112Y-75063628D02*
X118170112Y-75349342D01*
X118170112Y-75349342D02*
X118122493Y-75444580D01*
X118122493Y-75444580D02*
X118074874Y-75492200D01*
X118074874Y-75492200D02*
X117979636Y-75539819D01*
X117979636Y-75539819D02*
X117836779Y-75539819D01*
X118598684Y-74873152D02*
X118598684Y-75539819D01*
X118598684Y-74968390D02*
X118646303Y-74920771D01*
X118646303Y-74920771D02*
X118741541Y-74873152D01*
X118741541Y-74873152D02*
X118884398Y-74873152D01*
X118884398Y-74873152D02*
X118979636Y-74920771D01*
X118979636Y-74920771D02*
X119027255Y-75016009D01*
X119027255Y-75016009D02*
X119027255Y-75539819D01*
X120789160Y-74587438D02*
X120693922Y-74539819D01*
X120693922Y-74539819D02*
X120551065Y-74539819D01*
X120551065Y-74539819D02*
X120408208Y-74587438D01*
X120408208Y-74587438D02*
X120312970Y-74682676D01*
X120312970Y-74682676D02*
X120265351Y-74777914D01*
X120265351Y-74777914D02*
X120217732Y-74968390D01*
X120217732Y-74968390D02*
X120217732Y-75111247D01*
X120217732Y-75111247D02*
X120265351Y-75301723D01*
X120265351Y-75301723D02*
X120312970Y-75396961D01*
X120312970Y-75396961D02*
X120408208Y-75492200D01*
X120408208Y-75492200D02*
X120551065Y-75539819D01*
X120551065Y-75539819D02*
X120646303Y-75539819D01*
X120646303Y-75539819D02*
X120789160Y-75492200D01*
X120789160Y-75492200D02*
X120836779Y-75444580D01*
X120836779Y-75444580D02*
X120836779Y-75111247D01*
X120836779Y-75111247D02*
X120646303Y-75111247D01*
X121408208Y-75539819D02*
X121312970Y-75492200D01*
X121312970Y-75492200D02*
X121265351Y-75444580D01*
X121265351Y-75444580D02*
X121217732Y-75349342D01*
X121217732Y-75349342D02*
X121217732Y-75063628D01*
X121217732Y-75063628D02*
X121265351Y-74968390D01*
X121265351Y-74968390D02*
X121312970Y-74920771D01*
X121312970Y-74920771D02*
X121408208Y-74873152D01*
X121408208Y-74873152D02*
X121551065Y-74873152D01*
X121551065Y-74873152D02*
X121646303Y-74920771D01*
X121646303Y-74920771D02*
X121693922Y-74968390D01*
X121693922Y-74968390D02*
X121741541Y-75063628D01*
X121741541Y-75063628D02*
X121741541Y-75349342D01*
X121741541Y-75349342D02*
X121693922Y-75444580D01*
X121693922Y-75444580D02*
X121646303Y-75492200D01*
X121646303Y-75492200D02*
X121551065Y-75539819D01*
X121551065Y-75539819D02*
X121408208Y-75539819D01*
X122598684Y-74873152D02*
X122598684Y-75682676D01*
X122598684Y-75682676D02*
X122551065Y-75777914D01*
X122551065Y-75777914D02*
X122503446Y-75825533D01*
X122503446Y-75825533D02*
X122408208Y-75873152D01*
X122408208Y-75873152D02*
X122265351Y-75873152D01*
X122265351Y-75873152D02*
X122170113Y-75825533D01*
X122598684Y-75492200D02*
X122503446Y-75539819D01*
X122503446Y-75539819D02*
X122312970Y-75539819D01*
X122312970Y-75539819D02*
X122217732Y-75492200D01*
X122217732Y-75492200D02*
X122170113Y-75444580D01*
X122170113Y-75444580D02*
X122122494Y-75349342D01*
X122122494Y-75349342D02*
X122122494Y-75063628D01*
X122122494Y-75063628D02*
X122170113Y-74968390D01*
X122170113Y-74968390D02*
X122217732Y-74920771D01*
X122217732Y-74920771D02*
X122312970Y-74873152D01*
X122312970Y-74873152D02*
X122503446Y-74873152D01*
X122503446Y-74873152D02*
X122598684Y-74920771D01*
X123503446Y-74873152D02*
X123503446Y-75539819D01*
X123074875Y-74873152D02*
X123074875Y-75396961D01*
X123074875Y-75396961D02*
X123122494Y-75492200D01*
X123122494Y-75492200D02*
X123217732Y-75539819D01*
X123217732Y-75539819D02*
X123360589Y-75539819D01*
X123360589Y-75539819D02*
X123455827Y-75492200D01*
X123455827Y-75492200D02*
X123503446Y-75444580D01*
X124122494Y-75539819D02*
X124027256Y-75492200D01*
X124027256Y-75492200D02*
X123979637Y-75396961D01*
X123979637Y-75396961D02*
X123979637Y-74539819D01*
X124455828Y-75492200D02*
X124551066Y-75539819D01*
X124551066Y-75539819D02*
X124741542Y-75539819D01*
X124741542Y-75539819D02*
X124836780Y-75492200D01*
X124836780Y-75492200D02*
X124884399Y-75396961D01*
X124884399Y-75396961D02*
X124884399Y-75349342D01*
X124884399Y-75349342D02*
X124836780Y-75254104D01*
X124836780Y-75254104D02*
X124741542Y-75206485D01*
X124741542Y-75206485D02*
X124598685Y-75206485D01*
X124598685Y-75206485D02*
X124503447Y-75158866D01*
X124503447Y-75158866D02*
X124455828Y-75063628D01*
X124455828Y-75063628D02*
X124455828Y-75016009D01*
X124455828Y-75016009D02*
X124503447Y-74920771D01*
X124503447Y-74920771D02*
X124598685Y-74873152D01*
X124598685Y-74873152D02*
X124741542Y-74873152D01*
X124741542Y-74873152D02*
X124836780Y-74920771D01*
X125312971Y-75539819D02*
X125312971Y-74539819D01*
X125408209Y-75158866D02*
X125693923Y-75539819D01*
X125693923Y-74873152D02*
X125312971Y-75254104D01*
X126122495Y-75539819D02*
X126122495Y-74873152D01*
X126122495Y-74539819D02*
X126074876Y-74587438D01*
X126074876Y-74587438D02*
X126122495Y-74635057D01*
X126122495Y-74635057D02*
X126170114Y-74587438D01*
X126170114Y-74587438D02*
X126122495Y-74539819D01*
X126122495Y-74539819D02*
X126122495Y-74635057D01*
X113836779Y-77149819D02*
X113836779Y-76149819D01*
X113836779Y-76149819D02*
X114217731Y-76149819D01*
X114217731Y-76149819D02*
X114312969Y-76197438D01*
X114312969Y-76197438D02*
X114360588Y-76245057D01*
X114360588Y-76245057D02*
X114408207Y-76340295D01*
X114408207Y-76340295D02*
X114408207Y-76483152D01*
X114408207Y-76483152D02*
X114360588Y-76578390D01*
X114360588Y-76578390D02*
X114312969Y-76626009D01*
X114312969Y-76626009D02*
X114217731Y-76673628D01*
X114217731Y-76673628D02*
X113836779Y-76673628D01*
X114979636Y-77149819D02*
X114884398Y-77102200D01*
X114884398Y-77102200D02*
X114836779Y-77054580D01*
X114836779Y-77054580D02*
X114789160Y-76959342D01*
X114789160Y-76959342D02*
X114789160Y-76673628D01*
X114789160Y-76673628D02*
X114836779Y-76578390D01*
X114836779Y-76578390D02*
X114884398Y-76530771D01*
X114884398Y-76530771D02*
X114979636Y-76483152D01*
X114979636Y-76483152D02*
X115122493Y-76483152D01*
X115122493Y-76483152D02*
X115217731Y-76530771D01*
X115217731Y-76530771D02*
X115265350Y-76578390D01*
X115265350Y-76578390D02*
X115312969Y-76673628D01*
X115312969Y-76673628D02*
X115312969Y-76959342D01*
X115312969Y-76959342D02*
X115265350Y-77054580D01*
X115265350Y-77054580D02*
X115217731Y-77102200D01*
X115217731Y-77102200D02*
X115122493Y-77149819D01*
X115122493Y-77149819D02*
X114979636Y-77149819D01*
X115646303Y-76483152D02*
X116170112Y-76483152D01*
X116170112Y-76483152D02*
X115646303Y-77149819D01*
X115646303Y-77149819D02*
X116170112Y-77149819D01*
X116551065Y-76483152D02*
X116551065Y-77149819D01*
X116551065Y-76578390D02*
X116598684Y-76530771D01*
X116598684Y-76530771D02*
X116693922Y-76483152D01*
X116693922Y-76483152D02*
X116836779Y-76483152D01*
X116836779Y-76483152D02*
X116932017Y-76530771D01*
X116932017Y-76530771D02*
X116979636Y-76626009D01*
X116979636Y-76626009D02*
X116979636Y-77149819D01*
X117884398Y-77149819D02*
X117884398Y-76626009D01*
X117884398Y-76626009D02*
X117836779Y-76530771D01*
X117836779Y-76530771D02*
X117741541Y-76483152D01*
X117741541Y-76483152D02*
X117551065Y-76483152D01*
X117551065Y-76483152D02*
X117455827Y-76530771D01*
X117884398Y-77102200D02*
X117789160Y-77149819D01*
X117789160Y-77149819D02*
X117551065Y-77149819D01*
X117551065Y-77149819D02*
X117455827Y-77102200D01*
X117455827Y-77102200D02*
X117408208Y-77006961D01*
X117408208Y-77006961D02*
X117408208Y-76911723D01*
X117408208Y-76911723D02*
X117455827Y-76816485D01*
X117455827Y-76816485D02*
X117551065Y-76768866D01*
X117551065Y-76768866D02*
X117789160Y-76768866D01*
X117789160Y-76768866D02*
X117884398Y-76721247D01*
X118360589Y-76483152D02*
X118360589Y-77149819D01*
X118360589Y-76578390D02*
X118408208Y-76530771D01*
X118408208Y-76530771D02*
X118503446Y-76483152D01*
X118503446Y-76483152D02*
X118646303Y-76483152D01*
X118646303Y-76483152D02*
X118741541Y-76530771D01*
X118741541Y-76530771D02*
X118789160Y-76626009D01*
X118789160Y-76626009D02*
X118789160Y-77149819D01*
X118646303Y-76102200D02*
X118503446Y-76245057D01*
X119979637Y-76245057D02*
X120027256Y-76197438D01*
X120027256Y-76197438D02*
X120122494Y-76149819D01*
X120122494Y-76149819D02*
X120360589Y-76149819D01*
X120360589Y-76149819D02*
X120455827Y-76197438D01*
X120455827Y-76197438D02*
X120503446Y-76245057D01*
X120503446Y-76245057D02*
X120551065Y-76340295D01*
X120551065Y-76340295D02*
X120551065Y-76435533D01*
X120551065Y-76435533D02*
X120503446Y-76578390D01*
X120503446Y-76578390D02*
X119932018Y-77149819D01*
X119932018Y-77149819D02*
X120551065Y-77149819D01*
X121170113Y-76149819D02*
X121265351Y-76149819D01*
X121265351Y-76149819D02*
X121360589Y-76197438D01*
X121360589Y-76197438D02*
X121408208Y-76245057D01*
X121408208Y-76245057D02*
X121455827Y-76340295D01*
X121455827Y-76340295D02*
X121503446Y-76530771D01*
X121503446Y-76530771D02*
X121503446Y-76768866D01*
X121503446Y-76768866D02*
X121455827Y-76959342D01*
X121455827Y-76959342D02*
X121408208Y-77054580D01*
X121408208Y-77054580D02*
X121360589Y-77102200D01*
X121360589Y-77102200D02*
X121265351Y-77149819D01*
X121265351Y-77149819D02*
X121170113Y-77149819D01*
X121170113Y-77149819D02*
X121074875Y-77102200D01*
X121074875Y-77102200D02*
X121027256Y-77054580D01*
X121027256Y-77054580D02*
X120979637Y-76959342D01*
X120979637Y-76959342D02*
X120932018Y-76768866D01*
X120932018Y-76768866D02*
X120932018Y-76530771D01*
X120932018Y-76530771D02*
X120979637Y-76340295D01*
X120979637Y-76340295D02*
X121027256Y-76245057D01*
X121027256Y-76245057D02*
X121074875Y-76197438D01*
X121074875Y-76197438D02*
X121170113Y-76149819D01*
X121884399Y-76245057D02*
X121932018Y-76197438D01*
X121932018Y-76197438D02*
X122027256Y-76149819D01*
X122027256Y-76149819D02*
X122265351Y-76149819D01*
X122265351Y-76149819D02*
X122360589Y-76197438D01*
X122360589Y-76197438D02*
X122408208Y-76245057D01*
X122408208Y-76245057D02*
X122455827Y-76340295D01*
X122455827Y-76340295D02*
X122455827Y-76435533D01*
X122455827Y-76435533D02*
X122408208Y-76578390D01*
X122408208Y-76578390D02*
X121836780Y-77149819D01*
X121836780Y-77149819D02*
X122455827Y-77149819D01*
X123360589Y-76149819D02*
X122884399Y-76149819D01*
X122884399Y-76149819D02*
X122836780Y-76626009D01*
X122836780Y-76626009D02*
X122884399Y-76578390D01*
X122884399Y-76578390D02*
X122979637Y-76530771D01*
X122979637Y-76530771D02*
X123217732Y-76530771D01*
X123217732Y-76530771D02*
X123312970Y-76578390D01*
X123312970Y-76578390D02*
X123360589Y-76626009D01*
X123360589Y-76626009D02*
X123408208Y-76721247D01*
X123408208Y-76721247D02*
X123408208Y-76959342D01*
X123408208Y-76959342D02*
X123360589Y-77054580D01*
X123360589Y-77054580D02*
X123312970Y-77102200D01*
X123312970Y-77102200D02*
X123217732Y-77149819D01*
X123217732Y-77149819D02*
X122979637Y-77149819D01*
X122979637Y-77149819D02*
X122884399Y-77102200D01*
X122884399Y-77102200D02*
X122836780Y-77054580D01*
X114170112Y-78236009D02*
X114312969Y-78283628D01*
X114312969Y-78283628D02*
X114360588Y-78331247D01*
X114360588Y-78331247D02*
X114408207Y-78426485D01*
X114408207Y-78426485D02*
X114408207Y-78569342D01*
X114408207Y-78569342D02*
X114360588Y-78664580D01*
X114360588Y-78664580D02*
X114312969Y-78712200D01*
X114312969Y-78712200D02*
X114217731Y-78759819D01*
X114217731Y-78759819D02*
X113836779Y-78759819D01*
X113836779Y-78759819D02*
X113836779Y-77759819D01*
X113836779Y-77759819D02*
X114170112Y-77759819D01*
X114170112Y-77759819D02*
X114265350Y-77807438D01*
X114265350Y-77807438D02*
X114312969Y-77855057D01*
X114312969Y-77855057D02*
X114360588Y-77950295D01*
X114360588Y-77950295D02*
X114360588Y-78045533D01*
X114360588Y-78045533D02*
X114312969Y-78140771D01*
X114312969Y-78140771D02*
X114265350Y-78188390D01*
X114265350Y-78188390D02*
X114170112Y-78236009D01*
X114170112Y-78236009D02*
X113836779Y-78236009D01*
X115265350Y-78759819D02*
X115265350Y-78236009D01*
X115265350Y-78236009D02*
X115217731Y-78140771D01*
X115217731Y-78140771D02*
X115122493Y-78093152D01*
X115122493Y-78093152D02*
X114932017Y-78093152D01*
X114932017Y-78093152D02*
X114836779Y-78140771D01*
X115265350Y-78712200D02*
X115170112Y-78759819D01*
X115170112Y-78759819D02*
X114932017Y-78759819D01*
X114932017Y-78759819D02*
X114836779Y-78712200D01*
X114836779Y-78712200D02*
X114789160Y-78616961D01*
X114789160Y-78616961D02*
X114789160Y-78521723D01*
X114789160Y-78521723D02*
X114836779Y-78426485D01*
X114836779Y-78426485D02*
X114932017Y-78378866D01*
X114932017Y-78378866D02*
X115170112Y-78378866D01*
X115170112Y-78378866D02*
X115265350Y-78331247D01*
X116170112Y-78712200D02*
X116074874Y-78759819D01*
X116074874Y-78759819D02*
X115884398Y-78759819D01*
X115884398Y-78759819D02*
X115789160Y-78712200D01*
X115789160Y-78712200D02*
X115741541Y-78664580D01*
X115741541Y-78664580D02*
X115693922Y-78569342D01*
X115693922Y-78569342D02*
X115693922Y-78283628D01*
X115693922Y-78283628D02*
X115741541Y-78188390D01*
X115741541Y-78188390D02*
X115789160Y-78140771D01*
X115789160Y-78140771D02*
X115884398Y-78093152D01*
X115884398Y-78093152D02*
X116074874Y-78093152D01*
X116074874Y-78093152D02*
X116170112Y-78140771D01*
X116598684Y-78759819D02*
X116598684Y-77759819D01*
X117027255Y-78759819D02*
X117027255Y-78236009D01*
X117027255Y-78236009D02*
X116979636Y-78140771D01*
X116979636Y-78140771D02*
X116884398Y-78093152D01*
X116884398Y-78093152D02*
X116741541Y-78093152D01*
X116741541Y-78093152D02*
X116646303Y-78140771D01*
X116646303Y-78140771D02*
X116598684Y-78188390D01*
X117884398Y-78712200D02*
X117789160Y-78759819D01*
X117789160Y-78759819D02*
X117598684Y-78759819D01*
X117598684Y-78759819D02*
X117503446Y-78712200D01*
X117503446Y-78712200D02*
X117455827Y-78616961D01*
X117455827Y-78616961D02*
X117455827Y-78236009D01*
X117455827Y-78236009D02*
X117503446Y-78140771D01*
X117503446Y-78140771D02*
X117598684Y-78093152D01*
X117598684Y-78093152D02*
X117789160Y-78093152D01*
X117789160Y-78093152D02*
X117884398Y-78140771D01*
X117884398Y-78140771D02*
X117932017Y-78236009D01*
X117932017Y-78236009D02*
X117932017Y-78331247D01*
X117932017Y-78331247D02*
X117455827Y-78426485D01*
X118503446Y-78759819D02*
X118408208Y-78712200D01*
X118408208Y-78712200D02*
X118360589Y-78616961D01*
X118360589Y-78616961D02*
X118360589Y-77759819D01*
X119027256Y-78759819D02*
X118932018Y-78712200D01*
X118932018Y-78712200D02*
X118884399Y-78664580D01*
X118884399Y-78664580D02*
X118836780Y-78569342D01*
X118836780Y-78569342D02*
X118836780Y-78283628D01*
X118836780Y-78283628D02*
X118884399Y-78188390D01*
X118884399Y-78188390D02*
X118932018Y-78140771D01*
X118932018Y-78140771D02*
X119027256Y-78093152D01*
X119027256Y-78093152D02*
X119170113Y-78093152D01*
X119170113Y-78093152D02*
X119265351Y-78140771D01*
X119265351Y-78140771D02*
X119312970Y-78188390D01*
X119312970Y-78188390D02*
X119360589Y-78283628D01*
X119360589Y-78283628D02*
X119360589Y-78569342D01*
X119360589Y-78569342D02*
X119312970Y-78664580D01*
X119312970Y-78664580D02*
X119265351Y-78712200D01*
X119265351Y-78712200D02*
X119170113Y-78759819D01*
X119170113Y-78759819D02*
X119027256Y-78759819D01*
X119789161Y-78759819D02*
X119789161Y-78093152D01*
X119789161Y-78283628D02*
X119836780Y-78188390D01*
X119836780Y-78188390D02*
X119884399Y-78140771D01*
X119884399Y-78140771D02*
X119979637Y-78093152D01*
X119979637Y-78093152D02*
X120074875Y-78093152D01*
X121312971Y-78759819D02*
X121217733Y-78712200D01*
X121217733Y-78712200D02*
X121170114Y-78664580D01*
X121170114Y-78664580D02*
X121122495Y-78569342D01*
X121122495Y-78569342D02*
X121122495Y-78283628D01*
X121122495Y-78283628D02*
X121170114Y-78188390D01*
X121170114Y-78188390D02*
X121217733Y-78140771D01*
X121217733Y-78140771D02*
X121312971Y-78093152D01*
X121312971Y-78093152D02*
X121455828Y-78093152D01*
X121455828Y-78093152D02*
X121551066Y-78140771D01*
X121551066Y-78140771D02*
X121598685Y-78188390D01*
X121598685Y-78188390D02*
X121646304Y-78283628D01*
X121646304Y-78283628D02*
X121646304Y-78569342D01*
X121646304Y-78569342D02*
X121598685Y-78664580D01*
X121598685Y-78664580D02*
X121551066Y-78712200D01*
X121551066Y-78712200D02*
X121455828Y-78759819D01*
X121455828Y-78759819D02*
X121312971Y-78759819D01*
X121932019Y-78093152D02*
X122312971Y-78093152D01*
X122074876Y-78759819D02*
X122074876Y-77902676D01*
X122074876Y-77902676D02*
X122122495Y-77807438D01*
X122122495Y-77807438D02*
X122217733Y-77759819D01*
X122217733Y-77759819D02*
X122312971Y-77759819D01*
X123408210Y-78236009D02*
X123741543Y-78236009D01*
X123884400Y-78759819D02*
X123408210Y-78759819D01*
X123408210Y-78759819D02*
X123408210Y-77759819D01*
X123408210Y-77759819D02*
X123884400Y-77759819D01*
X124312972Y-78093152D02*
X124312972Y-78759819D01*
X124312972Y-78188390D02*
X124360591Y-78140771D01*
X124360591Y-78140771D02*
X124455829Y-78093152D01*
X124455829Y-78093152D02*
X124598686Y-78093152D01*
X124598686Y-78093152D02*
X124693924Y-78140771D01*
X124693924Y-78140771D02*
X124741543Y-78236009D01*
X124741543Y-78236009D02*
X124741543Y-78759819D01*
X125646305Y-78093152D02*
X125646305Y-78902676D01*
X125646305Y-78902676D02*
X125598686Y-78997914D01*
X125598686Y-78997914D02*
X125551067Y-79045533D01*
X125551067Y-79045533D02*
X125455829Y-79093152D01*
X125455829Y-79093152D02*
X125312972Y-79093152D01*
X125312972Y-79093152D02*
X125217734Y-79045533D01*
X125646305Y-78712200D02*
X125551067Y-78759819D01*
X125551067Y-78759819D02*
X125360591Y-78759819D01*
X125360591Y-78759819D02*
X125265353Y-78712200D01*
X125265353Y-78712200D02*
X125217734Y-78664580D01*
X125217734Y-78664580D02*
X125170115Y-78569342D01*
X125170115Y-78569342D02*
X125170115Y-78283628D01*
X125170115Y-78283628D02*
X125217734Y-78188390D01*
X125217734Y-78188390D02*
X125265353Y-78140771D01*
X125265353Y-78140771D02*
X125360591Y-78093152D01*
X125360591Y-78093152D02*
X125551067Y-78093152D01*
X125551067Y-78093152D02*
X125646305Y-78140771D01*
X126122496Y-78759819D02*
X126122496Y-78093152D01*
X126122496Y-77759819D02*
X126074877Y-77807438D01*
X126074877Y-77807438D02*
X126122496Y-77855057D01*
X126122496Y-77855057D02*
X126170115Y-77807438D01*
X126170115Y-77807438D02*
X126122496Y-77759819D01*
X126122496Y-77759819D02*
X126122496Y-77855057D01*
X126598686Y-78093152D02*
X126598686Y-78759819D01*
X126598686Y-78188390D02*
X126646305Y-78140771D01*
X126646305Y-78140771D02*
X126741543Y-78093152D01*
X126741543Y-78093152D02*
X126884400Y-78093152D01*
X126884400Y-78093152D02*
X126979638Y-78140771D01*
X126979638Y-78140771D02*
X127027257Y-78236009D01*
X127027257Y-78236009D02*
X127027257Y-78759819D01*
X127884400Y-78712200D02*
X127789162Y-78759819D01*
X127789162Y-78759819D02*
X127598686Y-78759819D01*
X127598686Y-78759819D02*
X127503448Y-78712200D01*
X127503448Y-78712200D02*
X127455829Y-78616961D01*
X127455829Y-78616961D02*
X127455829Y-78236009D01*
X127455829Y-78236009D02*
X127503448Y-78140771D01*
X127503448Y-78140771D02*
X127598686Y-78093152D01*
X127598686Y-78093152D02*
X127789162Y-78093152D01*
X127789162Y-78093152D02*
X127884400Y-78140771D01*
X127884400Y-78140771D02*
X127932019Y-78236009D01*
X127932019Y-78236009D02*
X127932019Y-78331247D01*
X127932019Y-78331247D02*
X127455829Y-78426485D01*
X128741543Y-78712200D02*
X128646305Y-78759819D01*
X128646305Y-78759819D02*
X128455829Y-78759819D01*
X128455829Y-78759819D02*
X128360591Y-78712200D01*
X128360591Y-78712200D02*
X128312972Y-78616961D01*
X128312972Y-78616961D02*
X128312972Y-78236009D01*
X128312972Y-78236009D02*
X128360591Y-78140771D01*
X128360591Y-78140771D02*
X128455829Y-78093152D01*
X128455829Y-78093152D02*
X128646305Y-78093152D01*
X128646305Y-78093152D02*
X128741543Y-78140771D01*
X128741543Y-78140771D02*
X128789162Y-78236009D01*
X128789162Y-78236009D02*
X128789162Y-78331247D01*
X128789162Y-78331247D02*
X128312972Y-78426485D01*
X129217734Y-78759819D02*
X129217734Y-78093152D01*
X129217734Y-78283628D02*
X129265353Y-78188390D01*
X129265353Y-78188390D02*
X129312972Y-78140771D01*
X129312972Y-78140771D02*
X129408210Y-78093152D01*
X129408210Y-78093152D02*
X129503448Y-78093152D01*
X129836782Y-78759819D02*
X129836782Y-78093152D01*
X129836782Y-77759819D02*
X129789163Y-77807438D01*
X129789163Y-77807438D02*
X129836782Y-77855057D01*
X129836782Y-77855057D02*
X129884401Y-77807438D01*
X129884401Y-77807438D02*
X129836782Y-77759819D01*
X129836782Y-77759819D02*
X129836782Y-77855057D01*
X130312972Y-78093152D02*
X130312972Y-78759819D01*
X130312972Y-78188390D02*
X130360591Y-78140771D01*
X130360591Y-78140771D02*
X130455829Y-78093152D01*
X130455829Y-78093152D02*
X130598686Y-78093152D01*
X130598686Y-78093152D02*
X130693924Y-78140771D01*
X130693924Y-78140771D02*
X130741543Y-78236009D01*
X130741543Y-78236009D02*
X130741543Y-78759819D01*
X131646305Y-78093152D02*
X131646305Y-78902676D01*
X131646305Y-78902676D02*
X131598686Y-78997914D01*
X131598686Y-78997914D02*
X131551067Y-79045533D01*
X131551067Y-79045533D02*
X131455829Y-79093152D01*
X131455829Y-79093152D02*
X131312972Y-79093152D01*
X131312972Y-79093152D02*
X131217734Y-79045533D01*
X131646305Y-78712200D02*
X131551067Y-78759819D01*
X131551067Y-78759819D02*
X131360591Y-78759819D01*
X131360591Y-78759819D02*
X131265353Y-78712200D01*
X131265353Y-78712200D02*
X131217734Y-78664580D01*
X131217734Y-78664580D02*
X131170115Y-78569342D01*
X131170115Y-78569342D02*
X131170115Y-78283628D01*
X131170115Y-78283628D02*
X131217734Y-78188390D01*
X131217734Y-78188390D02*
X131265353Y-78140771D01*
X131265353Y-78140771D02*
X131360591Y-78093152D01*
X131360591Y-78093152D02*
X131551067Y-78093152D01*
X131551067Y-78093152D02*
X131646305Y-78140771D01*
X132884401Y-78759819D02*
X132884401Y-77759819D01*
X132884401Y-77759819D02*
X133265353Y-77759819D01*
X133265353Y-77759819D02*
X133360591Y-77807438D01*
X133360591Y-77807438D02*
X133408210Y-77855057D01*
X133408210Y-77855057D02*
X133455829Y-77950295D01*
X133455829Y-77950295D02*
X133455829Y-78093152D01*
X133455829Y-78093152D02*
X133408210Y-78188390D01*
X133408210Y-78188390D02*
X133360591Y-78236009D01*
X133360591Y-78236009D02*
X133265353Y-78283628D01*
X133265353Y-78283628D02*
X132884401Y-78283628D01*
X133884401Y-78759819D02*
X133884401Y-78093152D01*
X133884401Y-78283628D02*
X133932020Y-78188390D01*
X133932020Y-78188390D02*
X133979639Y-78140771D01*
X133979639Y-78140771D02*
X134074877Y-78093152D01*
X134074877Y-78093152D02*
X134170115Y-78093152D01*
X134646306Y-78759819D02*
X134551068Y-78712200D01*
X134551068Y-78712200D02*
X134503449Y-78664580D01*
X134503449Y-78664580D02*
X134455830Y-78569342D01*
X134455830Y-78569342D02*
X134455830Y-78283628D01*
X134455830Y-78283628D02*
X134503449Y-78188390D01*
X134503449Y-78188390D02*
X134551068Y-78140771D01*
X134551068Y-78140771D02*
X134646306Y-78093152D01*
X134646306Y-78093152D02*
X134789163Y-78093152D01*
X134789163Y-78093152D02*
X134884401Y-78140771D01*
X134884401Y-78140771D02*
X134932020Y-78188390D01*
X134932020Y-78188390D02*
X134979639Y-78283628D01*
X134979639Y-78283628D02*
X134979639Y-78569342D01*
X134979639Y-78569342D02*
X134932020Y-78664580D01*
X134932020Y-78664580D02*
X134884401Y-78712200D01*
X134884401Y-78712200D02*
X134789163Y-78759819D01*
X134789163Y-78759819D02*
X134646306Y-78759819D01*
X135408211Y-78093152D02*
X135408211Y-78950295D01*
X135408211Y-78950295D02*
X135360592Y-79045533D01*
X135360592Y-79045533D02*
X135265354Y-79093152D01*
X135265354Y-79093152D02*
X135217735Y-79093152D01*
X135408211Y-77759819D02*
X135360592Y-77807438D01*
X135360592Y-77807438D02*
X135408211Y-77855057D01*
X135408211Y-77855057D02*
X135455830Y-77807438D01*
X135455830Y-77807438D02*
X135408211Y-77759819D01*
X135408211Y-77759819D02*
X135408211Y-77855057D01*
X136265353Y-78712200D02*
X136170115Y-78759819D01*
X136170115Y-78759819D02*
X135979639Y-78759819D01*
X135979639Y-78759819D02*
X135884401Y-78712200D01*
X135884401Y-78712200D02*
X135836782Y-78616961D01*
X135836782Y-78616961D02*
X135836782Y-78236009D01*
X135836782Y-78236009D02*
X135884401Y-78140771D01*
X135884401Y-78140771D02*
X135979639Y-78093152D01*
X135979639Y-78093152D02*
X136170115Y-78093152D01*
X136170115Y-78093152D02*
X136265353Y-78140771D01*
X136265353Y-78140771D02*
X136312972Y-78236009D01*
X136312972Y-78236009D02*
X136312972Y-78331247D01*
X136312972Y-78331247D02*
X135836782Y-78426485D01*
X137170115Y-78712200D02*
X137074877Y-78759819D01*
X137074877Y-78759819D02*
X136884401Y-78759819D01*
X136884401Y-78759819D02*
X136789163Y-78712200D01*
X136789163Y-78712200D02*
X136741544Y-78664580D01*
X136741544Y-78664580D02*
X136693925Y-78569342D01*
X136693925Y-78569342D02*
X136693925Y-78283628D01*
X136693925Y-78283628D02*
X136741544Y-78188390D01*
X136741544Y-78188390D02*
X136789163Y-78140771D01*
X136789163Y-78140771D02*
X136884401Y-78093152D01*
X136884401Y-78093152D02*
X137074877Y-78093152D01*
X137074877Y-78093152D02*
X137170115Y-78140771D01*
X137455830Y-78093152D02*
X137836782Y-78093152D01*
X137598687Y-77759819D02*
X137598687Y-78616961D01*
X137598687Y-78616961D02*
X137646306Y-78712200D01*
X137646306Y-78712200D02*
X137741544Y-78759819D01*
X137741544Y-78759819D02*
X137836782Y-78759819D01*
X113836779Y-79846009D02*
X114170112Y-79846009D01*
X114312969Y-80369819D02*
X113836779Y-80369819D01*
X113836779Y-80369819D02*
X113836779Y-79369819D01*
X113836779Y-79369819D02*
X114312969Y-79369819D01*
X114741541Y-80369819D02*
X114741541Y-79703152D01*
X114741541Y-79798390D02*
X114789160Y-79750771D01*
X114789160Y-79750771D02*
X114884398Y-79703152D01*
X114884398Y-79703152D02*
X115027255Y-79703152D01*
X115027255Y-79703152D02*
X115122493Y-79750771D01*
X115122493Y-79750771D02*
X115170112Y-79846009D01*
X115170112Y-79846009D02*
X115170112Y-80369819D01*
X115170112Y-79846009D02*
X115217731Y-79750771D01*
X115217731Y-79750771D02*
X115312969Y-79703152D01*
X115312969Y-79703152D02*
X115455826Y-79703152D01*
X115455826Y-79703152D02*
X115551065Y-79750771D01*
X115551065Y-79750771D02*
X115598684Y-79846009D01*
X115598684Y-79846009D02*
X115598684Y-80369819D01*
X116074874Y-80369819D02*
X116074874Y-79369819D01*
X116074874Y-79750771D02*
X116170112Y-79703152D01*
X116170112Y-79703152D02*
X116360588Y-79703152D01*
X116360588Y-79703152D02*
X116455826Y-79750771D01*
X116455826Y-79750771D02*
X116503445Y-79798390D01*
X116503445Y-79798390D02*
X116551064Y-79893628D01*
X116551064Y-79893628D02*
X116551064Y-80179342D01*
X116551064Y-80179342D02*
X116503445Y-80274580D01*
X116503445Y-80274580D02*
X116455826Y-80322200D01*
X116455826Y-80322200D02*
X116360588Y-80369819D01*
X116360588Y-80369819D02*
X116170112Y-80369819D01*
X116170112Y-80369819D02*
X116074874Y-80322200D01*
X117360588Y-80322200D02*
X117265350Y-80369819D01*
X117265350Y-80369819D02*
X117074874Y-80369819D01*
X117074874Y-80369819D02*
X116979636Y-80322200D01*
X116979636Y-80322200D02*
X116932017Y-80226961D01*
X116932017Y-80226961D02*
X116932017Y-79846009D01*
X116932017Y-79846009D02*
X116979636Y-79750771D01*
X116979636Y-79750771D02*
X117074874Y-79703152D01*
X117074874Y-79703152D02*
X117265350Y-79703152D01*
X117265350Y-79703152D02*
X117360588Y-79750771D01*
X117360588Y-79750771D02*
X117408207Y-79846009D01*
X117408207Y-79846009D02*
X117408207Y-79941247D01*
X117408207Y-79941247D02*
X116932017Y-80036485D01*
X118265350Y-80369819D02*
X118265350Y-79369819D01*
X118265350Y-80322200D02*
X118170112Y-80369819D01*
X118170112Y-80369819D02*
X117979636Y-80369819D01*
X117979636Y-80369819D02*
X117884398Y-80322200D01*
X117884398Y-80322200D02*
X117836779Y-80274580D01*
X117836779Y-80274580D02*
X117789160Y-80179342D01*
X117789160Y-80179342D02*
X117789160Y-79893628D01*
X117789160Y-79893628D02*
X117836779Y-79798390D01*
X117836779Y-79798390D02*
X117884398Y-79750771D01*
X117884398Y-79750771D02*
X117979636Y-79703152D01*
X117979636Y-79703152D02*
X118170112Y-79703152D01*
X118170112Y-79703152D02*
X118265350Y-79750771D01*
X119170112Y-80369819D02*
X119170112Y-79369819D01*
X119170112Y-80322200D02*
X119074874Y-80369819D01*
X119074874Y-80369819D02*
X118884398Y-80369819D01*
X118884398Y-80369819D02*
X118789160Y-80322200D01*
X118789160Y-80322200D02*
X118741541Y-80274580D01*
X118741541Y-80274580D02*
X118693922Y-80179342D01*
X118693922Y-80179342D02*
X118693922Y-79893628D01*
X118693922Y-79893628D02*
X118741541Y-79798390D01*
X118741541Y-79798390D02*
X118789160Y-79750771D01*
X118789160Y-79750771D02*
X118884398Y-79703152D01*
X118884398Y-79703152D02*
X119074874Y-79703152D01*
X119074874Y-79703152D02*
X119170112Y-79750771D01*
X120027255Y-80322200D02*
X119932017Y-80369819D01*
X119932017Y-80369819D02*
X119741541Y-80369819D01*
X119741541Y-80369819D02*
X119646303Y-80322200D01*
X119646303Y-80322200D02*
X119598684Y-80226961D01*
X119598684Y-80226961D02*
X119598684Y-79846009D01*
X119598684Y-79846009D02*
X119646303Y-79750771D01*
X119646303Y-79750771D02*
X119741541Y-79703152D01*
X119741541Y-79703152D02*
X119932017Y-79703152D01*
X119932017Y-79703152D02*
X120027255Y-79750771D01*
X120027255Y-79750771D02*
X120074874Y-79846009D01*
X120074874Y-79846009D02*
X120074874Y-79941247D01*
X120074874Y-79941247D02*
X119598684Y-80036485D01*
X120932017Y-80369819D02*
X120932017Y-79369819D01*
X120932017Y-80322200D02*
X120836779Y-80369819D01*
X120836779Y-80369819D02*
X120646303Y-80369819D01*
X120646303Y-80369819D02*
X120551065Y-80322200D01*
X120551065Y-80322200D02*
X120503446Y-80274580D01*
X120503446Y-80274580D02*
X120455827Y-80179342D01*
X120455827Y-80179342D02*
X120455827Y-79893628D01*
X120455827Y-79893628D02*
X120503446Y-79798390D01*
X120503446Y-79798390D02*
X120551065Y-79750771D01*
X120551065Y-79750771D02*
X120646303Y-79703152D01*
X120646303Y-79703152D02*
X120836779Y-79703152D01*
X120836779Y-79703152D02*
X120932017Y-79750771D01*
X122122494Y-80084104D02*
X122598684Y-80084104D01*
X122027256Y-80369819D02*
X122360589Y-79369819D01*
X122360589Y-79369819D02*
X122693922Y-80369819D01*
X123027256Y-80369819D02*
X123027256Y-79369819D01*
X124265351Y-80369819D02*
X124265351Y-79369819D01*
X124360589Y-79988866D02*
X124646303Y-80369819D01*
X124646303Y-79703152D02*
X124265351Y-80084104D01*
X125455827Y-80322200D02*
X125360589Y-80369819D01*
X125360589Y-80369819D02*
X125170113Y-80369819D01*
X125170113Y-80369819D02*
X125074875Y-80322200D01*
X125074875Y-80322200D02*
X125027256Y-80226961D01*
X125027256Y-80226961D02*
X125027256Y-79846009D01*
X125027256Y-79846009D02*
X125074875Y-79750771D01*
X125074875Y-79750771D02*
X125170113Y-79703152D01*
X125170113Y-79703152D02*
X125360589Y-79703152D01*
X125360589Y-79703152D02*
X125455827Y-79750771D01*
X125455827Y-79750771D02*
X125503446Y-79846009D01*
X125503446Y-79846009D02*
X125503446Y-79941247D01*
X125503446Y-79941247D02*
X125027256Y-80036485D01*
X125836780Y-79703152D02*
X126074875Y-80369819D01*
X126312970Y-79703152D02*
X126074875Y-80369819D01*
X126074875Y-80369819D02*
X125979637Y-80607914D01*
X125979637Y-80607914D02*
X125932018Y-80655533D01*
X125932018Y-80655533D02*
X125836780Y-80703152D01*
X127360590Y-79703152D02*
X127551066Y-80369819D01*
X127551066Y-80369819D02*
X127741542Y-79893628D01*
X127741542Y-79893628D02*
X127932018Y-80369819D01*
X127932018Y-80369819D02*
X128122494Y-79703152D01*
X128646304Y-80369819D02*
X128551066Y-80322200D01*
X128551066Y-80322200D02*
X128503447Y-80274580D01*
X128503447Y-80274580D02*
X128455828Y-80179342D01*
X128455828Y-80179342D02*
X128455828Y-79893628D01*
X128455828Y-79893628D02*
X128503447Y-79798390D01*
X128503447Y-79798390D02*
X128551066Y-79750771D01*
X128551066Y-79750771D02*
X128646304Y-79703152D01*
X128646304Y-79703152D02*
X128789161Y-79703152D01*
X128789161Y-79703152D02*
X128884399Y-79750771D01*
X128884399Y-79750771D02*
X128932018Y-79798390D01*
X128932018Y-79798390D02*
X128979637Y-79893628D01*
X128979637Y-79893628D02*
X128979637Y-80179342D01*
X128979637Y-80179342D02*
X128932018Y-80274580D01*
X128932018Y-80274580D02*
X128884399Y-80322200D01*
X128884399Y-80322200D02*
X128789161Y-80369819D01*
X128789161Y-80369819D02*
X128646304Y-80369819D01*
X129408209Y-80369819D02*
X129408209Y-79703152D01*
X129408209Y-79893628D02*
X129455828Y-79798390D01*
X129455828Y-79798390D02*
X129503447Y-79750771D01*
X129503447Y-79750771D02*
X129598685Y-79703152D01*
X129598685Y-79703152D02*
X129693923Y-79703152D01*
X130455828Y-80369819D02*
X130455828Y-79369819D01*
X130455828Y-80322200D02*
X130360590Y-80369819D01*
X130360590Y-80369819D02*
X130170114Y-80369819D01*
X130170114Y-80369819D02*
X130074876Y-80322200D01*
X130074876Y-80322200D02*
X130027257Y-80274580D01*
X130027257Y-80274580D02*
X129979638Y-80179342D01*
X129979638Y-80179342D02*
X129979638Y-79893628D01*
X129979638Y-79893628D02*
X130027257Y-79798390D01*
X130027257Y-79798390D02*
X130074876Y-79750771D01*
X130074876Y-79750771D02*
X130170114Y-79703152D01*
X130170114Y-79703152D02*
X130360590Y-79703152D01*
X130360590Y-79703152D02*
X130455828Y-79750771D01*
X131693924Y-80369819D02*
X131693924Y-79703152D01*
X131693924Y-79893628D02*
X131741543Y-79798390D01*
X131741543Y-79798390D02*
X131789162Y-79750771D01*
X131789162Y-79750771D02*
X131884400Y-79703152D01*
X131884400Y-79703152D02*
X131979638Y-79703152D01*
X132693924Y-80322200D02*
X132598686Y-80369819D01*
X132598686Y-80369819D02*
X132408210Y-80369819D01*
X132408210Y-80369819D02*
X132312972Y-80322200D01*
X132312972Y-80322200D02*
X132265353Y-80226961D01*
X132265353Y-80226961D02*
X132265353Y-79846009D01*
X132265353Y-79846009D02*
X132312972Y-79750771D01*
X132312972Y-79750771D02*
X132408210Y-79703152D01*
X132408210Y-79703152D02*
X132598686Y-79703152D01*
X132598686Y-79703152D02*
X132693924Y-79750771D01*
X132693924Y-79750771D02*
X132741543Y-79846009D01*
X132741543Y-79846009D02*
X132741543Y-79941247D01*
X132741543Y-79941247D02*
X132265353Y-80036485D01*
X133598686Y-80322200D02*
X133503448Y-80369819D01*
X133503448Y-80369819D02*
X133312972Y-80369819D01*
X133312972Y-80369819D02*
X133217734Y-80322200D01*
X133217734Y-80322200D02*
X133170115Y-80274580D01*
X133170115Y-80274580D02*
X133122496Y-80179342D01*
X133122496Y-80179342D02*
X133122496Y-79893628D01*
X133122496Y-79893628D02*
X133170115Y-79798390D01*
X133170115Y-79798390D02*
X133217734Y-79750771D01*
X133217734Y-79750771D02*
X133312972Y-79703152D01*
X133312972Y-79703152D02*
X133503448Y-79703152D01*
X133503448Y-79703152D02*
X133598686Y-79750771D01*
X134170115Y-80369819D02*
X134074877Y-80322200D01*
X134074877Y-80322200D02*
X134027258Y-80274580D01*
X134027258Y-80274580D02*
X133979639Y-80179342D01*
X133979639Y-80179342D02*
X133979639Y-79893628D01*
X133979639Y-79893628D02*
X134027258Y-79798390D01*
X134027258Y-79798390D02*
X134074877Y-79750771D01*
X134074877Y-79750771D02*
X134170115Y-79703152D01*
X134170115Y-79703152D02*
X134312972Y-79703152D01*
X134312972Y-79703152D02*
X134408210Y-79750771D01*
X134408210Y-79750771D02*
X134455829Y-79798390D01*
X134455829Y-79798390D02*
X134503448Y-79893628D01*
X134503448Y-79893628D02*
X134503448Y-80179342D01*
X134503448Y-80179342D02*
X134455829Y-80274580D01*
X134455829Y-80274580D02*
X134408210Y-80322200D01*
X134408210Y-80322200D02*
X134312972Y-80369819D01*
X134312972Y-80369819D02*
X134170115Y-80369819D01*
X135360591Y-79703152D02*
X135360591Y-80512676D01*
X135360591Y-80512676D02*
X135312972Y-80607914D01*
X135312972Y-80607914D02*
X135265353Y-80655533D01*
X135265353Y-80655533D02*
X135170115Y-80703152D01*
X135170115Y-80703152D02*
X135027258Y-80703152D01*
X135027258Y-80703152D02*
X134932020Y-80655533D01*
X135360591Y-80322200D02*
X135265353Y-80369819D01*
X135265353Y-80369819D02*
X135074877Y-80369819D01*
X135074877Y-80369819D02*
X134979639Y-80322200D01*
X134979639Y-80322200D02*
X134932020Y-80274580D01*
X134932020Y-80274580D02*
X134884401Y-80179342D01*
X134884401Y-80179342D02*
X134884401Y-79893628D01*
X134884401Y-79893628D02*
X134932020Y-79798390D01*
X134932020Y-79798390D02*
X134979639Y-79750771D01*
X134979639Y-79750771D02*
X135074877Y-79703152D01*
X135074877Y-79703152D02*
X135265353Y-79703152D01*
X135265353Y-79703152D02*
X135360591Y-79750771D01*
X135836782Y-79703152D02*
X135836782Y-80369819D01*
X135836782Y-79798390D02*
X135884401Y-79750771D01*
X135884401Y-79750771D02*
X135979639Y-79703152D01*
X135979639Y-79703152D02*
X136122496Y-79703152D01*
X136122496Y-79703152D02*
X136217734Y-79750771D01*
X136217734Y-79750771D02*
X136265353Y-79846009D01*
X136265353Y-79846009D02*
X136265353Y-80369819D01*
X136741544Y-80369819D02*
X136741544Y-79703152D01*
X136741544Y-79369819D02*
X136693925Y-79417438D01*
X136693925Y-79417438D02*
X136741544Y-79465057D01*
X136741544Y-79465057D02*
X136789163Y-79417438D01*
X136789163Y-79417438D02*
X136741544Y-79369819D01*
X136741544Y-79369819D02*
X136741544Y-79465057D01*
X137074877Y-79703152D02*
X137455829Y-79703152D01*
X137217734Y-79369819D02*
X137217734Y-80226961D01*
X137217734Y-80226961D02*
X137265353Y-80322200D01*
X137265353Y-80322200D02*
X137360591Y-80369819D01*
X137360591Y-80369819D02*
X137455829Y-80369819D01*
X137789163Y-80369819D02*
X137789163Y-79703152D01*
X137789163Y-79369819D02*
X137741544Y-79417438D01*
X137741544Y-79417438D02*
X137789163Y-79465057D01*
X137789163Y-79465057D02*
X137836782Y-79417438D01*
X137836782Y-79417438D02*
X137789163Y-79369819D01*
X137789163Y-79369819D02*
X137789163Y-79465057D01*
X138408210Y-80369819D02*
X138312972Y-80322200D01*
X138312972Y-80322200D02*
X138265353Y-80274580D01*
X138265353Y-80274580D02*
X138217734Y-80179342D01*
X138217734Y-80179342D02*
X138217734Y-79893628D01*
X138217734Y-79893628D02*
X138265353Y-79798390D01*
X138265353Y-79798390D02*
X138312972Y-79750771D01*
X138312972Y-79750771D02*
X138408210Y-79703152D01*
X138408210Y-79703152D02*
X138551067Y-79703152D01*
X138551067Y-79703152D02*
X138646305Y-79750771D01*
X138646305Y-79750771D02*
X138693924Y-79798390D01*
X138693924Y-79798390D02*
X138741543Y-79893628D01*
X138741543Y-79893628D02*
X138741543Y-80179342D01*
X138741543Y-80179342D02*
X138693924Y-80274580D01*
X138693924Y-80274580D02*
X138646305Y-80322200D01*
X138646305Y-80322200D02*
X138551067Y-80369819D01*
X138551067Y-80369819D02*
X138408210Y-80369819D01*
X139170115Y-79703152D02*
X139170115Y-80369819D01*
X139170115Y-79798390D02*
X139217734Y-79750771D01*
X139217734Y-79750771D02*
X139312972Y-79703152D01*
X139312972Y-79703152D02*
X139455829Y-79703152D01*
X139455829Y-79703152D02*
X139551067Y-79750771D01*
X139551067Y-79750771D02*
X139598686Y-79846009D01*
X139598686Y-79846009D02*
X139598686Y-80369819D01*
X139223810Y-62150057D02*
X139271429Y-62102438D01*
X139271429Y-62102438D02*
X139366667Y-62054819D01*
X139366667Y-62054819D02*
X139604762Y-62054819D01*
X139604762Y-62054819D02*
X139700000Y-62102438D01*
X139700000Y-62102438D02*
X139747619Y-62150057D01*
X139747619Y-62150057D02*
X139795238Y-62245295D01*
X139795238Y-62245295D02*
X139795238Y-62340533D01*
X139795238Y-62340533D02*
X139747619Y-62483390D01*
X139747619Y-62483390D02*
X139176191Y-63054819D01*
X139176191Y-63054819D02*
X139795238Y-63054819D01*
X140700000Y-62054819D02*
X140223810Y-62054819D01*
X140223810Y-62054819D02*
X140176191Y-62531009D01*
X140176191Y-62531009D02*
X140223810Y-62483390D01*
X140223810Y-62483390D02*
X140319048Y-62435771D01*
X140319048Y-62435771D02*
X140557143Y-62435771D01*
X140557143Y-62435771D02*
X140652381Y-62483390D01*
X140652381Y-62483390D02*
X140700000Y-62531009D01*
X140700000Y-62531009D02*
X140747619Y-62626247D01*
X140747619Y-62626247D02*
X140747619Y-62864342D01*
X140747619Y-62864342D02*
X140700000Y-62959580D01*
X140700000Y-62959580D02*
X140652381Y-63007200D01*
X140652381Y-63007200D02*
X140557143Y-63054819D01*
X140557143Y-63054819D02*
X140319048Y-63054819D01*
X140319048Y-63054819D02*
X140223810Y-63007200D01*
X140223810Y-63007200D02*
X140176191Y-62959580D01*
X141938096Y-63054819D02*
X141938096Y-62388152D01*
X141938096Y-62483390D02*
X141985715Y-62435771D01*
X141985715Y-62435771D02*
X142080953Y-62388152D01*
X142080953Y-62388152D02*
X142223810Y-62388152D01*
X142223810Y-62388152D02*
X142319048Y-62435771D01*
X142319048Y-62435771D02*
X142366667Y-62531009D01*
X142366667Y-62531009D02*
X142366667Y-63054819D01*
X142366667Y-62531009D02*
X142414286Y-62435771D01*
X142414286Y-62435771D02*
X142509524Y-62388152D01*
X142509524Y-62388152D02*
X142652381Y-62388152D01*
X142652381Y-62388152D02*
X142747620Y-62435771D01*
X142747620Y-62435771D02*
X142795239Y-62531009D01*
X142795239Y-62531009D02*
X142795239Y-63054819D01*
X143271429Y-63054819D02*
X143271429Y-62388152D01*
X143271429Y-62483390D02*
X143319048Y-62435771D01*
X143319048Y-62435771D02*
X143414286Y-62388152D01*
X143414286Y-62388152D02*
X143557143Y-62388152D01*
X143557143Y-62388152D02*
X143652381Y-62435771D01*
X143652381Y-62435771D02*
X143700000Y-62531009D01*
X143700000Y-62531009D02*
X143700000Y-63054819D01*
X143700000Y-62531009D02*
X143747619Y-62435771D01*
X143747619Y-62435771D02*
X143842857Y-62388152D01*
X143842857Y-62388152D02*
X143985714Y-62388152D01*
X143985714Y-62388152D02*
X144080953Y-62435771D01*
X144080953Y-62435771D02*
X144128572Y-62531009D01*
X144128572Y-62531009D02*
X144128572Y-63054819D01*
X154000000Y-63050000D02*
X154000000Y-62113581D01*
X129000000Y-63050000D02*
X129000000Y-62113581D01*
X154000000Y-62700001D02*
X144991667Y-62700001D01*
X138408334Y-62700001D02*
X129000000Y-62700001D01*
X154000000Y-62700001D02*
X152873496Y-63286422D01*
X154000000Y-62700001D02*
X152873496Y-62113580D01*
X129000000Y-62700001D02*
X130126504Y-62113580D01*
X129000000Y-62700001D02*
X130126504Y-63286422D01*
X149154819Y-72334761D02*
X149154819Y-72906189D01*
X149154819Y-72620475D02*
X148154819Y-72620475D01*
X148154819Y-72620475D02*
X148297676Y-72715713D01*
X148297676Y-72715713D02*
X148392914Y-72810951D01*
X148392914Y-72810951D02*
X148440533Y-72906189D01*
X148154819Y-72001427D02*
X148154819Y-71382380D01*
X148154819Y-71382380D02*
X148535771Y-71715713D01*
X148535771Y-71715713D02*
X148535771Y-71572856D01*
X148535771Y-71572856D02*
X148583390Y-71477618D01*
X148583390Y-71477618D02*
X148631009Y-71429999D01*
X148631009Y-71429999D02*
X148726247Y-71382380D01*
X148726247Y-71382380D02*
X148964342Y-71382380D01*
X148964342Y-71382380D02*
X149059580Y-71429999D01*
X149059580Y-71429999D02*
X149107200Y-71477618D01*
X149107200Y-71477618D02*
X149154819Y-71572856D01*
X149154819Y-71572856D02*
X149154819Y-71858570D01*
X149154819Y-71858570D02*
X149107200Y-71953808D01*
X149107200Y-71953808D02*
X149059580Y-72001427D01*
X149154819Y-70191903D02*
X148488152Y-70191903D01*
X148583390Y-70191903D02*
X148535771Y-70144284D01*
X148535771Y-70144284D02*
X148488152Y-70049046D01*
X148488152Y-70049046D02*
X148488152Y-69906189D01*
X148488152Y-69906189D02*
X148535771Y-69810951D01*
X148535771Y-69810951D02*
X148631009Y-69763332D01*
X148631009Y-69763332D02*
X149154819Y-69763332D01*
X148631009Y-69763332D02*
X148535771Y-69715713D01*
X148535771Y-69715713D02*
X148488152Y-69620475D01*
X148488152Y-69620475D02*
X148488152Y-69477618D01*
X148488152Y-69477618D02*
X148535771Y-69382379D01*
X148535771Y-69382379D02*
X148631009Y-69334760D01*
X148631009Y-69334760D02*
X149154819Y-69334760D01*
X149154819Y-68858570D02*
X148488152Y-68858570D01*
X148583390Y-68858570D02*
X148535771Y-68810951D01*
X148535771Y-68810951D02*
X148488152Y-68715713D01*
X148488152Y-68715713D02*
X148488152Y-68572856D01*
X148488152Y-68572856D02*
X148535771Y-68477618D01*
X148535771Y-68477618D02*
X148631009Y-68429999D01*
X148631009Y-68429999D02*
X149154819Y-68429999D01*
X148631009Y-68429999D02*
X148535771Y-68382380D01*
X148535771Y-68382380D02*
X148488152Y-68287142D01*
X148488152Y-68287142D02*
X148488152Y-68144285D01*
X148488152Y-68144285D02*
X148535771Y-68049046D01*
X148535771Y-68049046D02*
X148631009Y-68001427D01*
X148631009Y-68001427D02*
X149154819Y-68001427D01*
X150370000Y-64020000D02*
X148413581Y-64020000D01*
X150370000Y-76840000D02*
X148413581Y-76840000D01*
X149000001Y-64020000D02*
X149000001Y-67138333D01*
X149000001Y-73721666D02*
X149000001Y-76840000D01*
X149000001Y-64020000D02*
X149586422Y-65146504D01*
X149000001Y-64020000D02*
X148413580Y-65146504D01*
X149000001Y-76840000D02*
X148413580Y-75713496D01*
X149000001Y-76840000D02*
X149586422Y-75713496D01*
X161350057Y-62676189D02*
X161302438Y-62628570D01*
X161302438Y-62628570D02*
X161254819Y-62533332D01*
X161254819Y-62533332D02*
X161254819Y-62295237D01*
X161254819Y-62295237D02*
X161302438Y-62199999D01*
X161302438Y-62199999D02*
X161350057Y-62152380D01*
X161350057Y-62152380D02*
X161445295Y-62104761D01*
X161445295Y-62104761D02*
X161540533Y-62104761D01*
X161540533Y-62104761D02*
X161683390Y-62152380D01*
X161683390Y-62152380D02*
X162254819Y-62723808D01*
X162254819Y-62723808D02*
X162254819Y-62104761D01*
X161254819Y-61485713D02*
X161254819Y-61390475D01*
X161254819Y-61390475D02*
X161302438Y-61295237D01*
X161302438Y-61295237D02*
X161350057Y-61247618D01*
X161350057Y-61247618D02*
X161445295Y-61199999D01*
X161445295Y-61199999D02*
X161635771Y-61152380D01*
X161635771Y-61152380D02*
X161873866Y-61152380D01*
X161873866Y-61152380D02*
X162064342Y-61199999D01*
X162064342Y-61199999D02*
X162159580Y-61247618D01*
X162159580Y-61247618D02*
X162207200Y-61295237D01*
X162207200Y-61295237D02*
X162254819Y-61390475D01*
X162254819Y-61390475D02*
X162254819Y-61485713D01*
X162254819Y-61485713D02*
X162207200Y-61580951D01*
X162207200Y-61580951D02*
X162159580Y-61628570D01*
X162159580Y-61628570D02*
X162064342Y-61676189D01*
X162064342Y-61676189D02*
X161873866Y-61723808D01*
X161873866Y-61723808D02*
X161635771Y-61723808D01*
X161635771Y-61723808D02*
X161445295Y-61676189D01*
X161445295Y-61676189D02*
X161350057Y-61628570D01*
X161350057Y-61628570D02*
X161302438Y-61580951D01*
X161302438Y-61580951D02*
X161254819Y-61485713D01*
X162254819Y-59961903D02*
X161588152Y-59961903D01*
X161683390Y-59961903D02*
X161635771Y-59914284D01*
X161635771Y-59914284D02*
X161588152Y-59819046D01*
X161588152Y-59819046D02*
X161588152Y-59676189D01*
X161588152Y-59676189D02*
X161635771Y-59580951D01*
X161635771Y-59580951D02*
X161731009Y-59533332D01*
X161731009Y-59533332D02*
X162254819Y-59533332D01*
X161731009Y-59533332D02*
X161635771Y-59485713D01*
X161635771Y-59485713D02*
X161588152Y-59390475D01*
X161588152Y-59390475D02*
X161588152Y-59247618D01*
X161588152Y-59247618D02*
X161635771Y-59152379D01*
X161635771Y-59152379D02*
X161731009Y-59104760D01*
X161731009Y-59104760D02*
X162254819Y-59104760D01*
X162254819Y-58628570D02*
X161588152Y-58628570D01*
X161683390Y-58628570D02*
X161635771Y-58580951D01*
X161635771Y-58580951D02*
X161588152Y-58485713D01*
X161588152Y-58485713D02*
X161588152Y-58342856D01*
X161588152Y-58342856D02*
X161635771Y-58247618D01*
X161635771Y-58247618D02*
X161731009Y-58199999D01*
X161731009Y-58199999D02*
X162254819Y-58199999D01*
X161731009Y-58199999D02*
X161635771Y-58152380D01*
X161635771Y-58152380D02*
X161588152Y-58057142D01*
X161588152Y-58057142D02*
X161588152Y-57914285D01*
X161588152Y-57914285D02*
X161635771Y-57819046D01*
X161635771Y-57819046D02*
X161731009Y-57771427D01*
X161731009Y-57771427D02*
X162254819Y-57771427D01*
X164010000Y-69685000D02*
X161413580Y-69685000D01*
X164010000Y-49670000D02*
X161413580Y-49670000D01*
X162000000Y-69685000D02*
X162000000Y-63491666D01*
X162000000Y-56908333D02*
X162000000Y-49670000D01*
X162000000Y-69685000D02*
X161413579Y-68558496D01*
X162000000Y-69685000D02*
X162586421Y-68558496D01*
X162000000Y-49670000D02*
X162586421Y-50796504D01*
X162000000Y-49670000D02*
X161413579Y-50796504D01*
X188017619Y-47854819D02*
X187541429Y-47854819D01*
X187541429Y-47854819D02*
X187493810Y-48331009D01*
X187493810Y-48331009D02*
X187541429Y-48283390D01*
X187541429Y-48283390D02*
X187636667Y-48235771D01*
X187636667Y-48235771D02*
X187874762Y-48235771D01*
X187874762Y-48235771D02*
X187970000Y-48283390D01*
X187970000Y-48283390D02*
X188017619Y-48331009D01*
X188017619Y-48331009D02*
X188065238Y-48426247D01*
X188065238Y-48426247D02*
X188065238Y-48664342D01*
X188065238Y-48664342D02*
X188017619Y-48759580D01*
X188017619Y-48759580D02*
X187970000Y-48807200D01*
X187970000Y-48807200D02*
X187874762Y-48854819D01*
X187874762Y-48854819D02*
X187636667Y-48854819D01*
X187636667Y-48854819D02*
X187541429Y-48807200D01*
X187541429Y-48807200D02*
X187493810Y-48759580D01*
X189017619Y-48854819D02*
X188446191Y-48854819D01*
X188731905Y-48854819D02*
X188731905Y-47854819D01*
X188731905Y-47854819D02*
X188636667Y-47997676D01*
X188636667Y-47997676D02*
X188541429Y-48092914D01*
X188541429Y-48092914D02*
X188446191Y-48140533D01*
X190208096Y-48854819D02*
X190208096Y-48188152D01*
X190208096Y-48283390D02*
X190255715Y-48235771D01*
X190255715Y-48235771D02*
X190350953Y-48188152D01*
X190350953Y-48188152D02*
X190493810Y-48188152D01*
X190493810Y-48188152D02*
X190589048Y-48235771D01*
X190589048Y-48235771D02*
X190636667Y-48331009D01*
X190636667Y-48331009D02*
X190636667Y-48854819D01*
X190636667Y-48331009D02*
X190684286Y-48235771D01*
X190684286Y-48235771D02*
X190779524Y-48188152D01*
X190779524Y-48188152D02*
X190922381Y-48188152D01*
X190922381Y-48188152D02*
X191017620Y-48235771D01*
X191017620Y-48235771D02*
X191065239Y-48331009D01*
X191065239Y-48331009D02*
X191065239Y-48854819D01*
X191541429Y-48854819D02*
X191541429Y-48188152D01*
X191541429Y-48283390D02*
X191589048Y-48235771D01*
X191589048Y-48235771D02*
X191684286Y-48188152D01*
X191684286Y-48188152D02*
X191827143Y-48188152D01*
X191827143Y-48188152D02*
X191922381Y-48235771D01*
X191922381Y-48235771D02*
X191970000Y-48331009D01*
X191970000Y-48331009D02*
X191970000Y-48854819D01*
X191970000Y-48331009D02*
X192017619Y-48235771D01*
X192017619Y-48235771D02*
X192112857Y-48188152D01*
X192112857Y-48188152D02*
X192255714Y-48188152D01*
X192255714Y-48188152D02*
X192350953Y-48235771D01*
X192350953Y-48235771D02*
X192398572Y-48331009D01*
X192398572Y-48331009D02*
X192398572Y-48854819D01*
X215430000Y-49170000D02*
X215430000Y-48013581D01*
X164510000Y-49170000D02*
X164510000Y-48013581D01*
X215430000Y-48600001D02*
X193261667Y-48600001D01*
X186678334Y-48600001D02*
X164510000Y-48600001D01*
X215430000Y-48600001D02*
X214303496Y-49186422D01*
X215430000Y-48600001D02*
X214303496Y-48013580D01*
X164510000Y-48600001D02*
X165636504Y-48013580D01*
X164510000Y-48600001D02*
X165636504Y-49186422D01*
X128154819Y-72104761D02*
X128154819Y-72676189D01*
X128154819Y-72390475D02*
X127154819Y-72390475D01*
X127154819Y-72390475D02*
X127297676Y-72485713D01*
X127297676Y-72485713D02*
X127392914Y-72580951D01*
X127392914Y-72580951D02*
X127440533Y-72676189D01*
X127488152Y-71247618D02*
X128154819Y-71247618D01*
X127107200Y-71485713D02*
X127821485Y-71723808D01*
X127821485Y-71723808D02*
X127821485Y-71104761D01*
X128154819Y-69961903D02*
X127488152Y-69961903D01*
X127583390Y-69961903D02*
X127535771Y-69914284D01*
X127535771Y-69914284D02*
X127488152Y-69819046D01*
X127488152Y-69819046D02*
X127488152Y-69676189D01*
X127488152Y-69676189D02*
X127535771Y-69580951D01*
X127535771Y-69580951D02*
X127631009Y-69533332D01*
X127631009Y-69533332D02*
X128154819Y-69533332D01*
X127631009Y-69533332D02*
X127535771Y-69485713D01*
X127535771Y-69485713D02*
X127488152Y-69390475D01*
X127488152Y-69390475D02*
X127488152Y-69247618D01*
X127488152Y-69247618D02*
X127535771Y-69152379D01*
X127535771Y-69152379D02*
X127631009Y-69104760D01*
X127631009Y-69104760D02*
X128154819Y-69104760D01*
X128154819Y-68628570D02*
X127488152Y-68628570D01*
X127583390Y-68628570D02*
X127535771Y-68580951D01*
X127535771Y-68580951D02*
X127488152Y-68485713D01*
X127488152Y-68485713D02*
X127488152Y-68342856D01*
X127488152Y-68342856D02*
X127535771Y-68247618D01*
X127535771Y-68247618D02*
X127631009Y-68199999D01*
X127631009Y-68199999D02*
X128154819Y-68199999D01*
X127631009Y-68199999D02*
X127535771Y-68152380D01*
X127535771Y-68152380D02*
X127488152Y-68057142D01*
X127488152Y-68057142D02*
X127488152Y-67914285D01*
X127488152Y-67914285D02*
X127535771Y-67819046D01*
X127535771Y-67819046D02*
X127631009Y-67771427D01*
X127631009Y-67771427D02*
X128154819Y-67771427D01*
X128500000Y-77250000D02*
X127313580Y-77250000D01*
X128500000Y-63550000D02*
X127313580Y-63550000D01*
X127900000Y-77250000D02*
X127900000Y-73491666D01*
X127900000Y-66908333D02*
X127900000Y-63550000D01*
X127900000Y-77250000D02*
X127313579Y-76123496D01*
X127900000Y-77250000D02*
X128486421Y-76123496D01*
X127900000Y-63550000D02*
X128486421Y-64676504D01*
X127900000Y-63550000D02*
X127313579Y-64676504D01*
X108254819Y-80333333D02*
X107778628Y-80666666D01*
X108254819Y-80904761D02*
X107254819Y-80904761D01*
X107254819Y-80904761D02*
X107254819Y-80523809D01*
X107254819Y-80523809D02*
X107302438Y-80428571D01*
X107302438Y-80428571D02*
X107350057Y-80380952D01*
X107350057Y-80380952D02*
X107445295Y-80333333D01*
X107445295Y-80333333D02*
X107588152Y-80333333D01*
X107588152Y-80333333D02*
X107683390Y-80380952D01*
X107683390Y-80380952D02*
X107731009Y-80428571D01*
X107731009Y-80428571D02*
X107778628Y-80523809D01*
X107778628Y-80523809D02*
X107778628Y-80904761D01*
X107731009Y-79904761D02*
X107731009Y-79571428D01*
X108254819Y-79428571D02*
X108254819Y-79904761D01*
X108254819Y-79904761D02*
X107254819Y-79904761D01*
X107254819Y-79904761D02*
X107254819Y-79428571D01*
X107731009Y-78666666D02*
X107731009Y-78999999D01*
X108254819Y-78999999D02*
X107254819Y-78999999D01*
X107254819Y-78999999D02*
X107254819Y-78523809D01*
X107254819Y-77999999D02*
X107492914Y-77999999D01*
X107397676Y-78238094D02*
X107492914Y-77999999D01*
X107492914Y-77999999D02*
X107397676Y-77761904D01*
X107683390Y-78142856D02*
X107492914Y-77999999D01*
X107492914Y-77999999D02*
X107683390Y-77857142D01*
X107254819Y-77238094D02*
X107492914Y-77238094D01*
X107397676Y-77476189D02*
X107492914Y-77238094D01*
X107492914Y-77238094D02*
X107397676Y-76999999D01*
X107683390Y-77380951D02*
X107492914Y-77238094D01*
X107492914Y-77238094D02*
X107683390Y-77095237D01*
X217654819Y-80333333D02*
X217178628Y-80666666D01*
X217654819Y-80904761D02*
X216654819Y-80904761D01*
X216654819Y-80904761D02*
X216654819Y-80523809D01*
X216654819Y-80523809D02*
X216702438Y-80428571D01*
X216702438Y-80428571D02*
X216750057Y-80380952D01*
X216750057Y-80380952D02*
X216845295Y-80333333D01*
X216845295Y-80333333D02*
X216988152Y-80333333D01*
X216988152Y-80333333D02*
X217083390Y-80380952D01*
X217083390Y-80380952D02*
X217131009Y-80428571D01*
X217131009Y-80428571D02*
X217178628Y-80523809D01*
X217178628Y-80523809D02*
X217178628Y-80904761D01*
X217131009Y-79904761D02*
X217131009Y-79571428D01*
X217654819Y-79428571D02*
X217654819Y-79904761D01*
X217654819Y-79904761D02*
X216654819Y-79904761D01*
X216654819Y-79904761D02*
X216654819Y-79428571D01*
X217131009Y-78666666D02*
X217131009Y-78999999D01*
X217654819Y-78999999D02*
X216654819Y-78999999D01*
X216654819Y-78999999D02*
X216654819Y-78523809D01*
X216654819Y-77999999D02*
X216892914Y-77999999D01*
X216797676Y-78238094D02*
X216892914Y-77999999D01*
X216892914Y-77999999D02*
X216797676Y-77761904D01*
X217083390Y-78142856D02*
X216892914Y-77999999D01*
X216892914Y-77999999D02*
X217083390Y-77857142D01*
X216654819Y-77238094D02*
X216892914Y-77238094D01*
X216797676Y-77476189D02*
X216892914Y-77238094D01*
X216892914Y-77238094D02*
X216797676Y-76999999D01*
X217083390Y-77380951D02*
X216892914Y-77238094D01*
X216892914Y-77238094D02*
X217083390Y-77095237D01*
X110166666Y-45254819D02*
X109833333Y-44778628D01*
X109595238Y-45254819D02*
X109595238Y-44254819D01*
X109595238Y-44254819D02*
X109976190Y-44254819D01*
X109976190Y-44254819D02*
X110071428Y-44302438D01*
X110071428Y-44302438D02*
X110119047Y-44350057D01*
X110119047Y-44350057D02*
X110166666Y-44445295D01*
X110166666Y-44445295D02*
X110166666Y-44588152D01*
X110166666Y-44588152D02*
X110119047Y-44683390D01*
X110119047Y-44683390D02*
X110071428Y-44731009D01*
X110071428Y-44731009D02*
X109976190Y-44778628D01*
X109976190Y-44778628D02*
X109595238Y-44778628D01*
X110595238Y-44731009D02*
X110928571Y-44731009D01*
X111071428Y-45254819D02*
X110595238Y-45254819D01*
X110595238Y-45254819D02*
X110595238Y-44254819D01*
X110595238Y-44254819D02*
X111071428Y-44254819D01*
X111833333Y-44731009D02*
X111500000Y-44731009D01*
X111500000Y-45254819D02*
X111500000Y-44254819D01*
X111500000Y-44254819D02*
X111976190Y-44254819D01*
X112500000Y-44254819D02*
X112500000Y-44492914D01*
X112261905Y-44397676D02*
X112500000Y-44492914D01*
X112500000Y-44492914D02*
X112738095Y-44397676D01*
X112357143Y-44683390D02*
X112500000Y-44492914D01*
X112500000Y-44492914D02*
X112642857Y-44683390D01*
X113261905Y-44254819D02*
X113261905Y-44492914D01*
X113023810Y-44397676D02*
X113261905Y-44492914D01*
X113261905Y-44492914D02*
X113500000Y-44397676D01*
X113119048Y-44683390D02*
X113261905Y-44492914D01*
X113261905Y-44492914D02*
X113404762Y-44683390D01*
X184643333Y-64454819D02*
X184071905Y-64454819D01*
X184357619Y-64454819D02*
X184357619Y-63454819D01*
X184357619Y-63454819D02*
X184262381Y-63597676D01*
X184262381Y-63597676D02*
X184167143Y-63692914D01*
X184167143Y-63692914D02*
X184071905Y-63740533D01*
X185262381Y-63454819D02*
X185357619Y-63454819D01*
X185357619Y-63454819D02*
X185452857Y-63502438D01*
X185452857Y-63502438D02*
X185500476Y-63550057D01*
X185500476Y-63550057D02*
X185548095Y-63645295D01*
X185548095Y-63645295D02*
X185595714Y-63835771D01*
X185595714Y-63835771D02*
X185595714Y-64073866D01*
X185595714Y-64073866D02*
X185548095Y-64264342D01*
X185548095Y-64264342D02*
X185500476Y-64359580D01*
X185500476Y-64359580D02*
X185452857Y-64407200D01*
X185452857Y-64407200D02*
X185357619Y-64454819D01*
X185357619Y-64454819D02*
X185262381Y-64454819D01*
X185262381Y-64454819D02*
X185167143Y-64407200D01*
X185167143Y-64407200D02*
X185119524Y-64359580D01*
X185119524Y-64359580D02*
X185071905Y-64264342D01*
X185071905Y-64264342D02*
X185024286Y-64073866D01*
X185024286Y-64073866D02*
X185024286Y-63835771D01*
X185024286Y-63835771D02*
X185071905Y-63645295D01*
X185071905Y-63645295D02*
X185119524Y-63550057D01*
X185119524Y-63550057D02*
X185167143Y-63502438D01*
X185167143Y-63502438D02*
X185262381Y-63454819D01*
X186214762Y-63454819D02*
X186310000Y-63454819D01*
X186310000Y-63454819D02*
X186405238Y-63502438D01*
X186405238Y-63502438D02*
X186452857Y-63550057D01*
X186452857Y-63550057D02*
X186500476Y-63645295D01*
X186500476Y-63645295D02*
X186548095Y-63835771D01*
X186548095Y-63835771D02*
X186548095Y-64073866D01*
X186548095Y-64073866D02*
X186500476Y-64264342D01*
X186500476Y-64264342D02*
X186452857Y-64359580D01*
X186452857Y-64359580D02*
X186405238Y-64407200D01*
X186405238Y-64407200D02*
X186310000Y-64454819D01*
X186310000Y-64454819D02*
X186214762Y-64454819D01*
X186214762Y-64454819D02*
X186119524Y-64407200D01*
X186119524Y-64407200D02*
X186071905Y-64359580D01*
X186071905Y-64359580D02*
X186024286Y-64264342D01*
X186024286Y-64264342D02*
X185976667Y-64073866D01*
X185976667Y-64073866D02*
X185976667Y-63835771D01*
X185976667Y-63835771D02*
X186024286Y-63645295D01*
X186024286Y-63645295D02*
X186071905Y-63550057D01*
X186071905Y-63550057D02*
X186119524Y-63502438D01*
X186119524Y-63502438D02*
X186214762Y-63454819D01*
X187548095Y-64454819D02*
X187214762Y-63978628D01*
X186976667Y-64454819D02*
X186976667Y-63454819D01*
X186976667Y-63454819D02*
X187357619Y-63454819D01*
X187357619Y-63454819D02*
X187452857Y-63502438D01*
X187452857Y-63502438D02*
X187500476Y-63550057D01*
X187500476Y-63550057D02*
X187548095Y-63645295D01*
X187548095Y-63645295D02*
X187548095Y-63788152D01*
X187548095Y-63788152D02*
X187500476Y-63883390D01*
X187500476Y-63883390D02*
X187452857Y-63931009D01*
X187452857Y-63931009D02*
X187357619Y-63978628D01*
X187357619Y-63978628D02*
X186976667Y-63978628D01*
X157159580Y-68366666D02*
X157207200Y-68414285D01*
X157207200Y-68414285D02*
X157254819Y-68557142D01*
X157254819Y-68557142D02*
X157254819Y-68652380D01*
X157254819Y-68652380D02*
X157207200Y-68795237D01*
X157207200Y-68795237D02*
X157111961Y-68890475D01*
X157111961Y-68890475D02*
X157016723Y-68938094D01*
X157016723Y-68938094D02*
X156826247Y-68985713D01*
X156826247Y-68985713D02*
X156683390Y-68985713D01*
X156683390Y-68985713D02*
X156492914Y-68938094D01*
X156492914Y-68938094D02*
X156397676Y-68890475D01*
X156397676Y-68890475D02*
X156302438Y-68795237D01*
X156302438Y-68795237D02*
X156254819Y-68652380D01*
X156254819Y-68652380D02*
X156254819Y-68557142D01*
X156254819Y-68557142D02*
X156302438Y-68414285D01*
X156302438Y-68414285D02*
X156350057Y-68366666D01*
X157254819Y-67414285D02*
X157254819Y-67985713D01*
X157254819Y-67699999D02*
X156254819Y-67699999D01*
X156254819Y-67699999D02*
X156397676Y-67795237D01*
X156397676Y-67795237D02*
X156492914Y-67890475D01*
X156492914Y-67890475D02*
X156540533Y-67985713D01*
X156414819Y-59123809D02*
X156414819Y-59599999D01*
X156414819Y-59599999D02*
X155414819Y-59599999D01*
X155891009Y-58790475D02*
X155891009Y-58457142D01*
X156414819Y-58314285D02*
X156414819Y-58790475D01*
X156414819Y-58790475D02*
X155414819Y-58790475D01*
X155414819Y-58790475D02*
X155414819Y-58314285D01*
X156414819Y-57885713D02*
X155414819Y-57885713D01*
X155414819Y-57885713D02*
X155414819Y-57647618D01*
X155414819Y-57647618D02*
X155462438Y-57504761D01*
X155462438Y-57504761D02*
X155557676Y-57409523D01*
X155557676Y-57409523D02*
X155652914Y-57361904D01*
X155652914Y-57361904D02*
X155843390Y-57314285D01*
X155843390Y-57314285D02*
X155986247Y-57314285D01*
X155986247Y-57314285D02*
X156176723Y-57361904D01*
X156176723Y-57361904D02*
X156271961Y-57409523D01*
X156271961Y-57409523D02*
X156367200Y-57504761D01*
X156367200Y-57504761D02*
X156414819Y-57647618D01*
X156414819Y-57647618D02*
X156414819Y-57885713D01*
X156414819Y-55552380D02*
X155938628Y-55885713D01*
X156414819Y-56123808D02*
X155414819Y-56123808D01*
X155414819Y-56123808D02*
X155414819Y-55742856D01*
X155414819Y-55742856D02*
X155462438Y-55647618D01*
X155462438Y-55647618D02*
X155510057Y-55599999D01*
X155510057Y-55599999D02*
X155605295Y-55552380D01*
X155605295Y-55552380D02*
X155748152Y-55552380D01*
X155748152Y-55552380D02*
X155843390Y-55599999D01*
X155843390Y-55599999D02*
X155891009Y-55647618D01*
X155891009Y-55647618D02*
X155938628Y-55742856D01*
X155938628Y-55742856D02*
X155938628Y-56123808D01*
X200180952Y-59454819D02*
X199609524Y-59454819D01*
X199895238Y-59454819D02*
X199895238Y-58454819D01*
X199895238Y-58454819D02*
X199800000Y-58597676D01*
X199800000Y-58597676D02*
X199704762Y-58692914D01*
X199704762Y-58692914D02*
X199609524Y-58740533D01*
X200609524Y-59454819D02*
X200609524Y-58454819D01*
X200704762Y-59073866D02*
X200990476Y-59454819D01*
X200990476Y-58788152D02*
X200609524Y-59169104D01*
X196038095Y-77507200D02*
X196180952Y-77554819D01*
X196180952Y-77554819D02*
X196419047Y-77554819D01*
X196419047Y-77554819D02*
X196514285Y-77507200D01*
X196514285Y-77507200D02*
X196561904Y-77459580D01*
X196561904Y-77459580D02*
X196609523Y-77364342D01*
X196609523Y-77364342D02*
X196609523Y-77269104D01*
X196609523Y-77269104D02*
X196561904Y-77173866D01*
X196561904Y-77173866D02*
X196514285Y-77126247D01*
X196514285Y-77126247D02*
X196419047Y-77078628D01*
X196419047Y-77078628D02*
X196228571Y-77031009D01*
X196228571Y-77031009D02*
X196133333Y-76983390D01*
X196133333Y-76983390D02*
X196085714Y-76935771D01*
X196085714Y-76935771D02*
X196038095Y-76840533D01*
X196038095Y-76840533D02*
X196038095Y-76745295D01*
X196038095Y-76745295D02*
X196085714Y-76650057D01*
X196085714Y-76650057D02*
X196133333Y-76602438D01*
X196133333Y-76602438D02*
X196228571Y-76554819D01*
X196228571Y-76554819D02*
X196466666Y-76554819D01*
X196466666Y-76554819D02*
X196609523Y-76602438D01*
X197561904Y-77554819D02*
X196990476Y-77554819D01*
X197276190Y-77554819D02*
X197276190Y-76554819D01*
X197276190Y-76554819D02*
X197180952Y-76697676D01*
X197180952Y-76697676D02*
X197085714Y-76792914D01*
X197085714Y-76792914D02*
X196990476Y-76840533D01*
X210838095Y-77507200D02*
X210980952Y-77554819D01*
X210980952Y-77554819D02*
X211219047Y-77554819D01*
X211219047Y-77554819D02*
X211314285Y-77507200D01*
X211314285Y-77507200D02*
X211361904Y-77459580D01*
X211361904Y-77459580D02*
X211409523Y-77364342D01*
X211409523Y-77364342D02*
X211409523Y-77269104D01*
X211409523Y-77269104D02*
X211361904Y-77173866D01*
X211361904Y-77173866D02*
X211314285Y-77126247D01*
X211314285Y-77126247D02*
X211219047Y-77078628D01*
X211219047Y-77078628D02*
X211028571Y-77031009D01*
X211028571Y-77031009D02*
X210933333Y-76983390D01*
X210933333Y-76983390D02*
X210885714Y-76935771D01*
X210885714Y-76935771D02*
X210838095Y-76840533D01*
X210838095Y-76840533D02*
X210838095Y-76745295D01*
X210838095Y-76745295D02*
X210885714Y-76650057D01*
X210885714Y-76650057D02*
X210933333Y-76602438D01*
X210933333Y-76602438D02*
X211028571Y-76554819D01*
X211028571Y-76554819D02*
X211266666Y-76554819D01*
X211266666Y-76554819D02*
X211409523Y-76602438D01*
X211790476Y-76650057D02*
X211838095Y-76602438D01*
X211838095Y-76602438D02*
X211933333Y-76554819D01*
X211933333Y-76554819D02*
X212171428Y-76554819D01*
X212171428Y-76554819D02*
X212266666Y-76602438D01*
X212266666Y-76602438D02*
X212314285Y-76650057D01*
X212314285Y-76650057D02*
X212361904Y-76745295D01*
X212361904Y-76745295D02*
X212361904Y-76840533D01*
X212361904Y-76840533D02*
X212314285Y-76983390D01*
X212314285Y-76983390D02*
X211742857Y-77554819D01*
X211742857Y-77554819D02*
X212361904Y-77554819D01*
X200180952Y-62954819D02*
X199609524Y-62954819D01*
X199895238Y-62954819D02*
X199895238Y-61954819D01*
X199895238Y-61954819D02*
X199800000Y-62097676D01*
X199800000Y-62097676D02*
X199704762Y-62192914D01*
X199704762Y-62192914D02*
X199609524Y-62240533D01*
X200609524Y-62954819D02*
X200609524Y-61954819D01*
X200704762Y-62573866D02*
X200990476Y-62954819D01*
X200990476Y-62288152D02*
X200609524Y-62669104D01*
X116333333Y-71754819D02*
X115761905Y-71754819D01*
X116047619Y-71754819D02*
X116047619Y-70754819D01*
X116047619Y-70754819D02*
X115952381Y-70897676D01*
X115952381Y-70897676D02*
X115857143Y-70992914D01*
X115857143Y-70992914D02*
X115761905Y-71040533D01*
X116952381Y-70754819D02*
X117047619Y-70754819D01*
X117047619Y-70754819D02*
X117142857Y-70802438D01*
X117142857Y-70802438D02*
X117190476Y-70850057D01*
X117190476Y-70850057D02*
X117238095Y-70945295D01*
X117238095Y-70945295D02*
X117285714Y-71135771D01*
X117285714Y-71135771D02*
X117285714Y-71373866D01*
X117285714Y-71373866D02*
X117238095Y-71564342D01*
X117238095Y-71564342D02*
X117190476Y-71659580D01*
X117190476Y-71659580D02*
X117142857Y-71707200D01*
X117142857Y-71707200D02*
X117047619Y-71754819D01*
X117047619Y-71754819D02*
X116952381Y-71754819D01*
X116952381Y-71754819D02*
X116857143Y-71707200D01*
X116857143Y-71707200D02*
X116809524Y-71659580D01*
X116809524Y-71659580D02*
X116761905Y-71564342D01*
X116761905Y-71564342D02*
X116714286Y-71373866D01*
X116714286Y-71373866D02*
X116714286Y-71135771D01*
X116714286Y-71135771D02*
X116761905Y-70945295D01*
X116761905Y-70945295D02*
X116809524Y-70850057D01*
X116809524Y-70850057D02*
X116857143Y-70802438D01*
X116857143Y-70802438D02*
X116952381Y-70754819D01*
X117904762Y-70754819D02*
X118000000Y-70754819D01*
X118000000Y-70754819D02*
X118095238Y-70802438D01*
X118095238Y-70802438D02*
X118142857Y-70850057D01*
X118142857Y-70850057D02*
X118190476Y-70945295D01*
X118190476Y-70945295D02*
X118238095Y-71135771D01*
X118238095Y-71135771D02*
X118238095Y-71373866D01*
X118238095Y-71373866D02*
X118190476Y-71564342D01*
X118190476Y-71564342D02*
X118142857Y-71659580D01*
X118142857Y-71659580D02*
X118095238Y-71707200D01*
X118095238Y-71707200D02*
X118000000Y-71754819D01*
X118000000Y-71754819D02*
X117904762Y-71754819D01*
X117904762Y-71754819D02*
X117809524Y-71707200D01*
X117809524Y-71707200D02*
X117761905Y-71659580D01*
X117761905Y-71659580D02*
X117714286Y-71564342D01*
X117714286Y-71564342D02*
X117666667Y-71373866D01*
X117666667Y-71373866D02*
X117666667Y-71135771D01*
X117666667Y-71135771D02*
X117714286Y-70945295D01*
X117714286Y-70945295D02*
X117761905Y-70850057D01*
X117761905Y-70850057D02*
X117809524Y-70802438D01*
X117809524Y-70802438D02*
X117904762Y-70754819D01*
X119238095Y-71754819D02*
X118904762Y-71278628D01*
X118666667Y-71754819D02*
X118666667Y-70754819D01*
X118666667Y-70754819D02*
X119047619Y-70754819D01*
X119047619Y-70754819D02*
X119142857Y-70802438D01*
X119142857Y-70802438D02*
X119190476Y-70850057D01*
X119190476Y-70850057D02*
X119238095Y-70945295D01*
X119238095Y-70945295D02*
X119238095Y-71088152D01*
X119238095Y-71088152D02*
X119190476Y-71183390D01*
X119190476Y-71183390D02*
X119142857Y-71231009D01*
X119142857Y-71231009D02*
X119047619Y-71278628D01*
X119047619Y-71278628D02*
X118666667Y-71278628D01*
X139154761Y-52690057D02*
X139059523Y-52642438D01*
X139059523Y-52642438D02*
X138964285Y-52547200D01*
X138964285Y-52547200D02*
X138821428Y-52404342D01*
X138821428Y-52404342D02*
X138726190Y-52356723D01*
X138726190Y-52356723D02*
X138630952Y-52356723D01*
X138678571Y-52594819D02*
X138583333Y-52547200D01*
X138583333Y-52547200D02*
X138488095Y-52451961D01*
X138488095Y-52451961D02*
X138440476Y-52261485D01*
X138440476Y-52261485D02*
X138440476Y-51928152D01*
X138440476Y-51928152D02*
X138488095Y-51737676D01*
X138488095Y-51737676D02*
X138583333Y-51642438D01*
X138583333Y-51642438D02*
X138678571Y-51594819D01*
X138678571Y-51594819D02*
X138869047Y-51594819D01*
X138869047Y-51594819D02*
X138964285Y-51642438D01*
X138964285Y-51642438D02*
X139059523Y-51737676D01*
X139059523Y-51737676D02*
X139107142Y-51928152D01*
X139107142Y-51928152D02*
X139107142Y-52261485D01*
X139107142Y-52261485D02*
X139059523Y-52451961D01*
X139059523Y-52451961D02*
X138964285Y-52547200D01*
X138964285Y-52547200D02*
X138869047Y-52594819D01*
X138869047Y-52594819D02*
X138678571Y-52594819D01*
X139488095Y-51690057D02*
X139535714Y-51642438D01*
X139535714Y-51642438D02*
X139630952Y-51594819D01*
X139630952Y-51594819D02*
X139869047Y-51594819D01*
X139869047Y-51594819D02*
X139964285Y-51642438D01*
X139964285Y-51642438D02*
X140011904Y-51690057D01*
X140011904Y-51690057D02*
X140059523Y-51785295D01*
X140059523Y-51785295D02*
X140059523Y-51880533D01*
X140059523Y-51880533D02*
X140011904Y-52023390D01*
X140011904Y-52023390D02*
X139440476Y-52594819D01*
X139440476Y-52594819D02*
X140059523Y-52594819D01*
X140499819Y-59123809D02*
X140499819Y-59599999D01*
X140499819Y-59599999D02*
X139499819Y-59599999D01*
X139976009Y-58790475D02*
X139976009Y-58457142D01*
X140499819Y-58314285D02*
X140499819Y-58790475D01*
X140499819Y-58790475D02*
X139499819Y-58790475D01*
X139499819Y-58790475D02*
X139499819Y-58314285D01*
X140499819Y-57885713D02*
X139499819Y-57885713D01*
X139499819Y-57885713D02*
X139499819Y-57647618D01*
X139499819Y-57647618D02*
X139547438Y-57504761D01*
X139547438Y-57504761D02*
X139642676Y-57409523D01*
X139642676Y-57409523D02*
X139737914Y-57361904D01*
X139737914Y-57361904D02*
X139928390Y-57314285D01*
X139928390Y-57314285D02*
X140071247Y-57314285D01*
X140071247Y-57314285D02*
X140261723Y-57361904D01*
X140261723Y-57361904D02*
X140356961Y-57409523D01*
X140356961Y-57409523D02*
X140452200Y-57504761D01*
X140452200Y-57504761D02*
X140499819Y-57647618D01*
X140499819Y-57647618D02*
X140499819Y-57885713D01*
X139547438Y-55599999D02*
X139499819Y-55695237D01*
X139499819Y-55695237D02*
X139499819Y-55838094D01*
X139499819Y-55838094D02*
X139547438Y-55980951D01*
X139547438Y-55980951D02*
X139642676Y-56076189D01*
X139642676Y-56076189D02*
X139737914Y-56123808D01*
X139737914Y-56123808D02*
X139928390Y-56171427D01*
X139928390Y-56171427D02*
X140071247Y-56171427D01*
X140071247Y-56171427D02*
X140261723Y-56123808D01*
X140261723Y-56123808D02*
X140356961Y-56076189D01*
X140356961Y-56076189D02*
X140452200Y-55980951D01*
X140452200Y-55980951D02*
X140499819Y-55838094D01*
X140499819Y-55838094D02*
X140499819Y-55742856D01*
X140499819Y-55742856D02*
X140452200Y-55599999D01*
X140452200Y-55599999D02*
X140404580Y-55552380D01*
X140404580Y-55552380D02*
X140071247Y-55552380D01*
X140071247Y-55552380D02*
X140071247Y-55742856D01*
X179080952Y-76654819D02*
X178509524Y-76654819D01*
X178795238Y-76654819D02*
X178795238Y-75654819D01*
X178795238Y-75654819D02*
X178700000Y-75797676D01*
X178700000Y-75797676D02*
X178604762Y-75892914D01*
X178604762Y-75892914D02*
X178509524Y-75940533D01*
X179509524Y-76654819D02*
X179509524Y-75654819D01*
X179604762Y-76273866D02*
X179890476Y-76654819D01*
X179890476Y-75988152D02*
X179509524Y-76369104D01*
X119654819Y-55619047D02*
X119654819Y-56190475D01*
X119654819Y-55904761D02*
X118654819Y-55904761D01*
X118654819Y-55904761D02*
X118797676Y-55999999D01*
X118797676Y-55999999D02*
X118892914Y-56095237D01*
X118892914Y-56095237D02*
X118940533Y-56190475D01*
X119654819Y-55190475D02*
X118654819Y-55190475D01*
X119273866Y-55095237D02*
X119654819Y-54809523D01*
X118988152Y-54809523D02*
X119369104Y-55190475D01*
X200180952Y-55954819D02*
X199609524Y-55954819D01*
X199895238Y-55954819D02*
X199895238Y-54954819D01*
X199895238Y-54954819D02*
X199800000Y-55097676D01*
X199800000Y-55097676D02*
X199704762Y-55192914D01*
X199704762Y-55192914D02*
X199609524Y-55240533D01*
X200609524Y-55954819D02*
X200609524Y-54954819D01*
X200704762Y-55573866D02*
X200990476Y-55954819D01*
X200990476Y-55288152D02*
X200609524Y-55669104D01*
X147399761Y-52890057D02*
X147304523Y-52842438D01*
X147304523Y-52842438D02*
X147209285Y-52747200D01*
X147209285Y-52747200D02*
X147066428Y-52604342D01*
X147066428Y-52604342D02*
X146971190Y-52556723D01*
X146971190Y-52556723D02*
X146875952Y-52556723D01*
X146923571Y-52794819D02*
X146828333Y-52747200D01*
X146828333Y-52747200D02*
X146733095Y-52651961D01*
X146733095Y-52651961D02*
X146685476Y-52461485D01*
X146685476Y-52461485D02*
X146685476Y-52128152D01*
X146685476Y-52128152D02*
X146733095Y-51937676D01*
X146733095Y-51937676D02*
X146828333Y-51842438D01*
X146828333Y-51842438D02*
X146923571Y-51794819D01*
X146923571Y-51794819D02*
X147114047Y-51794819D01*
X147114047Y-51794819D02*
X147209285Y-51842438D01*
X147209285Y-51842438D02*
X147304523Y-51937676D01*
X147304523Y-51937676D02*
X147352142Y-52128152D01*
X147352142Y-52128152D02*
X147352142Y-52461485D01*
X147352142Y-52461485D02*
X147304523Y-52651961D01*
X147304523Y-52651961D02*
X147209285Y-52747200D01*
X147209285Y-52747200D02*
X147114047Y-52794819D01*
X147114047Y-52794819D02*
X146923571Y-52794819D01*
X147685476Y-51794819D02*
X148304523Y-51794819D01*
X148304523Y-51794819D02*
X147971190Y-52175771D01*
X147971190Y-52175771D02*
X148114047Y-52175771D01*
X148114047Y-52175771D02*
X148209285Y-52223390D01*
X148209285Y-52223390D02*
X148256904Y-52271009D01*
X148256904Y-52271009D02*
X148304523Y-52366247D01*
X148304523Y-52366247D02*
X148304523Y-52604342D01*
X148304523Y-52604342D02*
X148256904Y-52699580D01*
X148256904Y-52699580D02*
X148209285Y-52747200D01*
X148209285Y-52747200D02*
X148114047Y-52794819D01*
X148114047Y-52794819D02*
X147828333Y-52794819D01*
X147828333Y-52794819D02*
X147733095Y-52747200D01*
X147733095Y-52747200D02*
X147685476Y-52699580D01*
X169299523Y-60288152D02*
X169299523Y-60954819D01*
X169061428Y-59907200D02*
X168823333Y-60621485D01*
X168823333Y-60621485D02*
X169442380Y-60621485D01*
X169823333Y-60954819D02*
X169823333Y-59954819D01*
X169918571Y-60573866D02*
X170204285Y-60954819D01*
X170204285Y-60288152D02*
X169823333Y-60669104D01*
X170537619Y-59954819D02*
X171204285Y-59954819D01*
X171204285Y-59954819D02*
X170775714Y-60954819D01*
X155149761Y-52890057D02*
X155054523Y-52842438D01*
X155054523Y-52842438D02*
X154959285Y-52747200D01*
X154959285Y-52747200D02*
X154816428Y-52604342D01*
X154816428Y-52604342D02*
X154721190Y-52556723D01*
X154721190Y-52556723D02*
X154625952Y-52556723D01*
X154673571Y-52794819D02*
X154578333Y-52747200D01*
X154578333Y-52747200D02*
X154483095Y-52651961D01*
X154483095Y-52651961D02*
X154435476Y-52461485D01*
X154435476Y-52461485D02*
X154435476Y-52128152D01*
X154435476Y-52128152D02*
X154483095Y-51937676D01*
X154483095Y-51937676D02*
X154578333Y-51842438D01*
X154578333Y-51842438D02*
X154673571Y-51794819D01*
X154673571Y-51794819D02*
X154864047Y-51794819D01*
X154864047Y-51794819D02*
X154959285Y-51842438D01*
X154959285Y-51842438D02*
X155054523Y-51937676D01*
X155054523Y-51937676D02*
X155102142Y-52128152D01*
X155102142Y-52128152D02*
X155102142Y-52461485D01*
X155102142Y-52461485D02*
X155054523Y-52651961D01*
X155054523Y-52651961D02*
X154959285Y-52747200D01*
X154959285Y-52747200D02*
X154864047Y-52794819D01*
X154864047Y-52794819D02*
X154673571Y-52794819D01*
X155959285Y-52128152D02*
X155959285Y-52794819D01*
X155721190Y-51747200D02*
X155483095Y-52461485D01*
X155483095Y-52461485D02*
X156102142Y-52461485D01*
X214666666Y-53429819D02*
X214666666Y-54144104D01*
X214666666Y-54144104D02*
X214619047Y-54286961D01*
X214619047Y-54286961D02*
X214523809Y-54382200D01*
X214523809Y-54382200D02*
X214380952Y-54429819D01*
X214380952Y-54429819D02*
X214285714Y-54429819D01*
X215666666Y-54429819D02*
X215095238Y-54429819D01*
X215380952Y-54429819D02*
X215380952Y-53429819D01*
X215380952Y-53429819D02*
X215285714Y-53572676D01*
X215285714Y-53572676D02*
X215190476Y-53667914D01*
X215190476Y-53667914D02*
X215095238Y-53715533D01*
X184838571Y-60383390D02*
X184743333Y-60335771D01*
X184743333Y-60335771D02*
X184695714Y-60288152D01*
X184695714Y-60288152D02*
X184648095Y-60192914D01*
X184648095Y-60192914D02*
X184648095Y-60145295D01*
X184648095Y-60145295D02*
X184695714Y-60050057D01*
X184695714Y-60050057D02*
X184743333Y-60002438D01*
X184743333Y-60002438D02*
X184838571Y-59954819D01*
X184838571Y-59954819D02*
X185029047Y-59954819D01*
X185029047Y-59954819D02*
X185124285Y-60002438D01*
X185124285Y-60002438D02*
X185171904Y-60050057D01*
X185171904Y-60050057D02*
X185219523Y-60145295D01*
X185219523Y-60145295D02*
X185219523Y-60192914D01*
X185219523Y-60192914D02*
X185171904Y-60288152D01*
X185171904Y-60288152D02*
X185124285Y-60335771D01*
X185124285Y-60335771D02*
X185029047Y-60383390D01*
X185029047Y-60383390D02*
X184838571Y-60383390D01*
X184838571Y-60383390D02*
X184743333Y-60431009D01*
X184743333Y-60431009D02*
X184695714Y-60478628D01*
X184695714Y-60478628D02*
X184648095Y-60573866D01*
X184648095Y-60573866D02*
X184648095Y-60764342D01*
X184648095Y-60764342D02*
X184695714Y-60859580D01*
X184695714Y-60859580D02*
X184743333Y-60907200D01*
X184743333Y-60907200D02*
X184838571Y-60954819D01*
X184838571Y-60954819D02*
X185029047Y-60954819D01*
X185029047Y-60954819D02*
X185124285Y-60907200D01*
X185124285Y-60907200D02*
X185171904Y-60859580D01*
X185171904Y-60859580D02*
X185219523Y-60764342D01*
X185219523Y-60764342D02*
X185219523Y-60573866D01*
X185219523Y-60573866D02*
X185171904Y-60478628D01*
X185171904Y-60478628D02*
X185124285Y-60431009D01*
X185124285Y-60431009D02*
X185029047Y-60383390D01*
X185838571Y-59954819D02*
X185933809Y-59954819D01*
X185933809Y-59954819D02*
X186029047Y-60002438D01*
X186029047Y-60002438D02*
X186076666Y-60050057D01*
X186076666Y-60050057D02*
X186124285Y-60145295D01*
X186124285Y-60145295D02*
X186171904Y-60335771D01*
X186171904Y-60335771D02*
X186171904Y-60573866D01*
X186171904Y-60573866D02*
X186124285Y-60764342D01*
X186124285Y-60764342D02*
X186076666Y-60859580D01*
X186076666Y-60859580D02*
X186029047Y-60907200D01*
X186029047Y-60907200D02*
X185933809Y-60954819D01*
X185933809Y-60954819D02*
X185838571Y-60954819D01*
X185838571Y-60954819D02*
X185743333Y-60907200D01*
X185743333Y-60907200D02*
X185695714Y-60859580D01*
X185695714Y-60859580D02*
X185648095Y-60764342D01*
X185648095Y-60764342D02*
X185600476Y-60573866D01*
X185600476Y-60573866D02*
X185600476Y-60335771D01*
X185600476Y-60335771D02*
X185648095Y-60145295D01*
X185648095Y-60145295D02*
X185695714Y-60050057D01*
X185695714Y-60050057D02*
X185743333Y-60002438D01*
X185743333Y-60002438D02*
X185838571Y-59954819D01*
X187171904Y-60954819D02*
X186838571Y-60478628D01*
X186600476Y-60954819D02*
X186600476Y-59954819D01*
X186600476Y-59954819D02*
X186981428Y-59954819D01*
X186981428Y-59954819D02*
X187076666Y-60002438D01*
X187076666Y-60002438D02*
X187124285Y-60050057D01*
X187124285Y-60050057D02*
X187171904Y-60145295D01*
X187171904Y-60145295D02*
X187171904Y-60288152D01*
X187171904Y-60288152D02*
X187124285Y-60383390D01*
X187124285Y-60383390D02*
X187076666Y-60431009D01*
X187076666Y-60431009D02*
X186981428Y-60478628D01*
X186981428Y-60478628D02*
X186600476Y-60478628D01*
X148414819Y-59152381D02*
X148414819Y-59628571D01*
X148414819Y-59628571D02*
X147414819Y-59628571D01*
X147891009Y-58819047D02*
X147891009Y-58485714D01*
X148414819Y-58342857D02*
X148414819Y-58819047D01*
X148414819Y-58819047D02*
X147414819Y-58819047D01*
X147414819Y-58819047D02*
X147414819Y-58342857D01*
X148414819Y-57914285D02*
X147414819Y-57914285D01*
X147414819Y-57914285D02*
X147414819Y-57676190D01*
X147414819Y-57676190D02*
X147462438Y-57533333D01*
X147462438Y-57533333D02*
X147557676Y-57438095D01*
X147557676Y-57438095D02*
X147652914Y-57390476D01*
X147652914Y-57390476D02*
X147843390Y-57342857D01*
X147843390Y-57342857D02*
X147986247Y-57342857D01*
X147986247Y-57342857D02*
X148176723Y-57390476D01*
X148176723Y-57390476D02*
X148271961Y-57438095D01*
X148271961Y-57438095D02*
X148367200Y-57533333D01*
X148367200Y-57533333D02*
X148414819Y-57676190D01*
X148414819Y-57676190D02*
X148414819Y-57914285D01*
X147938628Y-55961904D02*
X148414819Y-55961904D01*
X147414819Y-56295237D02*
X147938628Y-55961904D01*
X147938628Y-55961904D02*
X147414819Y-55628571D01*
X164666666Y-70334819D02*
X164666666Y-71049104D01*
X164666666Y-71049104D02*
X164619047Y-71191961D01*
X164619047Y-71191961D02*
X164523809Y-71287200D01*
X164523809Y-71287200D02*
X164380952Y-71334819D01*
X164380952Y-71334819D02*
X164285714Y-71334819D01*
X165095238Y-70430057D02*
X165142857Y-70382438D01*
X165142857Y-70382438D02*
X165238095Y-70334819D01*
X165238095Y-70334819D02*
X165476190Y-70334819D01*
X165476190Y-70334819D02*
X165571428Y-70382438D01*
X165571428Y-70382438D02*
X165619047Y-70430057D01*
X165619047Y-70430057D02*
X165666666Y-70525295D01*
X165666666Y-70525295D02*
X165666666Y-70620533D01*
X165666666Y-70620533D02*
X165619047Y-70763390D01*
X165619047Y-70763390D02*
X165047619Y-71334819D01*
X165047619Y-71334819D02*
X165666666Y-71334819D01*
X123550057Y-64695238D02*
X123502438Y-64790476D01*
X123502438Y-64790476D02*
X123407200Y-64885714D01*
X123407200Y-64885714D02*
X123264342Y-65028571D01*
X123264342Y-65028571D02*
X123216723Y-65123809D01*
X123216723Y-65123809D02*
X123216723Y-65219047D01*
X123454819Y-65171428D02*
X123407200Y-65266666D01*
X123407200Y-65266666D02*
X123311961Y-65361904D01*
X123311961Y-65361904D02*
X123121485Y-65409523D01*
X123121485Y-65409523D02*
X122788152Y-65409523D01*
X122788152Y-65409523D02*
X122597676Y-65361904D01*
X122597676Y-65361904D02*
X122502438Y-65266666D01*
X122502438Y-65266666D02*
X122454819Y-65171428D01*
X122454819Y-65171428D02*
X122454819Y-64980952D01*
X122454819Y-64980952D02*
X122502438Y-64885714D01*
X122502438Y-64885714D02*
X122597676Y-64790476D01*
X122597676Y-64790476D02*
X122788152Y-64742857D01*
X122788152Y-64742857D02*
X123121485Y-64742857D01*
X123121485Y-64742857D02*
X123311961Y-64790476D01*
X123311961Y-64790476D02*
X123407200Y-64885714D01*
X123407200Y-64885714D02*
X123454819Y-64980952D01*
X123454819Y-64980952D02*
X123454819Y-65171428D01*
X123454819Y-63790476D02*
X123454819Y-64361904D01*
X123454819Y-64076190D02*
X122454819Y-64076190D01*
X122454819Y-64076190D02*
X122597676Y-64171428D01*
X122597676Y-64171428D02*
X122692914Y-64266666D01*
X122692914Y-64266666D02*
X122740533Y-64361904D01*
X169819523Y-63588152D02*
X169819523Y-64254819D01*
X169581428Y-63207200D02*
X169343333Y-63921485D01*
X169343333Y-63921485D02*
X169962380Y-63921485D01*
X170343333Y-64254819D02*
X170343333Y-63254819D01*
X170438571Y-63873866D02*
X170724285Y-64254819D01*
X170724285Y-63588152D02*
X170343333Y-63969104D01*
X171057619Y-63254819D02*
X171724285Y-63254819D01*
X171724285Y-63254819D02*
X171295714Y-64254819D01*
X114914819Y-66356904D02*
X114914819Y-66833094D01*
X114914819Y-66833094D02*
X113914819Y-66833094D01*
X114391009Y-66023570D02*
X114391009Y-65690237D01*
X114914819Y-65547380D02*
X114914819Y-66023570D01*
X114914819Y-66023570D02*
X113914819Y-66023570D01*
X113914819Y-66023570D02*
X113914819Y-65547380D01*
X114914819Y-65118808D02*
X113914819Y-65118808D01*
X113914819Y-65118808D02*
X113914819Y-64880713D01*
X113914819Y-64880713D02*
X113962438Y-64737856D01*
X113962438Y-64737856D02*
X114057676Y-64642618D01*
X114057676Y-64642618D02*
X114152914Y-64594999D01*
X114152914Y-64594999D02*
X114343390Y-64547380D01*
X114343390Y-64547380D02*
X114486247Y-64547380D01*
X114486247Y-64547380D02*
X114676723Y-64594999D01*
X114676723Y-64594999D02*
X114771961Y-64642618D01*
X114771961Y-64642618D02*
X114867200Y-64737856D01*
X114867200Y-64737856D02*
X114914819Y-64880713D01*
X114914819Y-64880713D02*
X114914819Y-65118808D01*
X114914819Y-63356903D02*
X113914819Y-63356903D01*
X114914819Y-62309285D02*
X114438628Y-62642618D01*
X114914819Y-62880713D02*
X113914819Y-62880713D01*
X113914819Y-62880713D02*
X113914819Y-62499761D01*
X113914819Y-62499761D02*
X113962438Y-62404523D01*
X113962438Y-62404523D02*
X114010057Y-62356904D01*
X114010057Y-62356904D02*
X114105295Y-62309285D01*
X114105295Y-62309285D02*
X114248152Y-62309285D01*
X114248152Y-62309285D02*
X114343390Y-62356904D01*
X114343390Y-62356904D02*
X114391009Y-62404523D01*
X114391009Y-62404523D02*
X114438628Y-62499761D01*
X114438628Y-62499761D02*
X114438628Y-62880713D01*
X184743333Y-57554819D02*
X184171905Y-57554819D01*
X184457619Y-57554819D02*
X184457619Y-56554819D01*
X184457619Y-56554819D02*
X184362381Y-56697676D01*
X184362381Y-56697676D02*
X184267143Y-56792914D01*
X184267143Y-56792914D02*
X184171905Y-56840533D01*
X185124286Y-56650057D02*
X185171905Y-56602438D01*
X185171905Y-56602438D02*
X185267143Y-56554819D01*
X185267143Y-56554819D02*
X185505238Y-56554819D01*
X185505238Y-56554819D02*
X185600476Y-56602438D01*
X185600476Y-56602438D02*
X185648095Y-56650057D01*
X185648095Y-56650057D02*
X185695714Y-56745295D01*
X185695714Y-56745295D02*
X185695714Y-56840533D01*
X185695714Y-56840533D02*
X185648095Y-56983390D01*
X185648095Y-56983390D02*
X185076667Y-57554819D01*
X185076667Y-57554819D02*
X185695714Y-57554819D01*
X186314762Y-56554819D02*
X186410000Y-56554819D01*
X186410000Y-56554819D02*
X186505238Y-56602438D01*
X186505238Y-56602438D02*
X186552857Y-56650057D01*
X186552857Y-56650057D02*
X186600476Y-56745295D01*
X186600476Y-56745295D02*
X186648095Y-56935771D01*
X186648095Y-56935771D02*
X186648095Y-57173866D01*
X186648095Y-57173866D02*
X186600476Y-57364342D01*
X186600476Y-57364342D02*
X186552857Y-57459580D01*
X186552857Y-57459580D02*
X186505238Y-57507200D01*
X186505238Y-57507200D02*
X186410000Y-57554819D01*
X186410000Y-57554819D02*
X186314762Y-57554819D01*
X186314762Y-57554819D02*
X186219524Y-57507200D01*
X186219524Y-57507200D02*
X186171905Y-57459580D01*
X186171905Y-57459580D02*
X186124286Y-57364342D01*
X186124286Y-57364342D02*
X186076667Y-57173866D01*
X186076667Y-57173866D02*
X186076667Y-56935771D01*
X186076667Y-56935771D02*
X186124286Y-56745295D01*
X186124286Y-56745295D02*
X186171905Y-56650057D01*
X186171905Y-56650057D02*
X186219524Y-56602438D01*
X186219524Y-56602438D02*
X186314762Y-56554819D01*
X187648095Y-57554819D02*
X187314762Y-57078628D01*
X187076667Y-57554819D02*
X187076667Y-56554819D01*
X187076667Y-56554819D02*
X187457619Y-56554819D01*
X187457619Y-56554819D02*
X187552857Y-56602438D01*
X187552857Y-56602438D02*
X187600476Y-56650057D01*
X187600476Y-56650057D02*
X187648095Y-56745295D01*
X187648095Y-56745295D02*
X187648095Y-56888152D01*
X187648095Y-56888152D02*
X187600476Y-56983390D01*
X187600476Y-56983390D02*
X187552857Y-57031009D01*
X187552857Y-57031009D02*
X187457619Y-57078628D01*
X187457619Y-57078628D02*
X187076667Y-57078628D01*
X178604761Y-73354819D02*
X178033333Y-73354819D01*
X178319047Y-73354819D02*
X178319047Y-72354819D01*
X178319047Y-72354819D02*
X178223809Y-72497676D01*
X178223809Y-72497676D02*
X178128571Y-72592914D01*
X178128571Y-72592914D02*
X178033333Y-72640533D01*
X179223809Y-72354819D02*
X179319047Y-72354819D01*
X179319047Y-72354819D02*
X179414285Y-72402438D01*
X179414285Y-72402438D02*
X179461904Y-72450057D01*
X179461904Y-72450057D02*
X179509523Y-72545295D01*
X179509523Y-72545295D02*
X179557142Y-72735771D01*
X179557142Y-72735771D02*
X179557142Y-72973866D01*
X179557142Y-72973866D02*
X179509523Y-73164342D01*
X179509523Y-73164342D02*
X179461904Y-73259580D01*
X179461904Y-73259580D02*
X179414285Y-73307200D01*
X179414285Y-73307200D02*
X179319047Y-73354819D01*
X179319047Y-73354819D02*
X179223809Y-73354819D01*
X179223809Y-73354819D02*
X179128571Y-73307200D01*
X179128571Y-73307200D02*
X179080952Y-73259580D01*
X179080952Y-73259580D02*
X179033333Y-73164342D01*
X179033333Y-73164342D02*
X178985714Y-72973866D01*
X178985714Y-72973866D02*
X178985714Y-72735771D01*
X178985714Y-72735771D02*
X179033333Y-72545295D01*
X179033333Y-72545295D02*
X179080952Y-72450057D01*
X179080952Y-72450057D02*
X179128571Y-72402438D01*
X179128571Y-72402438D02*
X179223809Y-72354819D01*
X179985714Y-73354819D02*
X179985714Y-72354819D01*
X180080952Y-72973866D02*
X180366666Y-73354819D01*
X180366666Y-72688152D02*
X179985714Y-73069104D01*
X164533333Y-73259580D02*
X164485714Y-73307200D01*
X164485714Y-73307200D02*
X164342857Y-73354819D01*
X164342857Y-73354819D02*
X164247619Y-73354819D01*
X164247619Y-73354819D02*
X164104762Y-73307200D01*
X164104762Y-73307200D02*
X164009524Y-73211961D01*
X164009524Y-73211961D02*
X163961905Y-73116723D01*
X163961905Y-73116723D02*
X163914286Y-72926247D01*
X163914286Y-72926247D02*
X163914286Y-72783390D01*
X163914286Y-72783390D02*
X163961905Y-72592914D01*
X163961905Y-72592914D02*
X164009524Y-72497676D01*
X164009524Y-72497676D02*
X164104762Y-72402438D01*
X164104762Y-72402438D02*
X164247619Y-72354819D01*
X164247619Y-72354819D02*
X164342857Y-72354819D01*
X164342857Y-72354819D02*
X164485714Y-72402438D01*
X164485714Y-72402438D02*
X164533333Y-72450057D01*
X164914286Y-72450057D02*
X164961905Y-72402438D01*
X164961905Y-72402438D02*
X165057143Y-72354819D01*
X165057143Y-72354819D02*
X165295238Y-72354819D01*
X165295238Y-72354819D02*
X165390476Y-72402438D01*
X165390476Y-72402438D02*
X165438095Y-72450057D01*
X165438095Y-72450057D02*
X165485714Y-72545295D01*
X165485714Y-72545295D02*
X165485714Y-72640533D01*
X165485714Y-72640533D02*
X165438095Y-72783390D01*
X165438095Y-72783390D02*
X164866667Y-73354819D01*
X164866667Y-73354819D02*
X165485714Y-73354819D01*
X152966666Y-77604819D02*
X152966666Y-78319104D01*
X152966666Y-78319104D02*
X152919047Y-78461961D01*
X152919047Y-78461961D02*
X152823809Y-78557200D01*
X152823809Y-78557200D02*
X152680952Y-78604819D01*
X152680952Y-78604819D02*
X152585714Y-78604819D01*
X153347619Y-77604819D02*
X153966666Y-77604819D01*
X153966666Y-77604819D02*
X153633333Y-77985771D01*
X153633333Y-77985771D02*
X153776190Y-77985771D01*
X153776190Y-77985771D02*
X153871428Y-78033390D01*
X153871428Y-78033390D02*
X153919047Y-78081009D01*
X153919047Y-78081009D02*
X153966666Y-78176247D01*
X153966666Y-78176247D02*
X153966666Y-78414342D01*
X153966666Y-78414342D02*
X153919047Y-78509580D01*
X153919047Y-78509580D02*
X153871428Y-78557200D01*
X153871428Y-78557200D02*
X153776190Y-78604819D01*
X153776190Y-78604819D02*
X153490476Y-78604819D01*
X153490476Y-78604819D02*
X153395238Y-78557200D01*
X153395238Y-78557200D02*
X153347619Y-78509580D01*
D11*
X144503884Y-78722419D02*
X144503884Y-77722419D01*
X144503884Y-77722419D02*
X144837217Y-78436704D01*
X144837217Y-78436704D02*
X145170550Y-77722419D01*
X145170550Y-77722419D02*
X145170550Y-78722419D01*
X145599122Y-78436704D02*
X146075312Y-78436704D01*
X145503884Y-78722419D02*
X145837217Y-77722419D01*
X145837217Y-77722419D02*
X146170550Y-78722419D01*
X146408646Y-77722419D02*
X147075312Y-78722419D01*
X147075312Y-77722419D02*
X146408646Y-78722419D01*
X147503884Y-78722419D02*
X147694360Y-78722419D01*
X147694360Y-78722419D02*
X147789598Y-78674800D01*
X147789598Y-78674800D02*
X147837217Y-78627180D01*
X147837217Y-78627180D02*
X147932455Y-78484323D01*
X147932455Y-78484323D02*
X147980074Y-78293847D01*
X147980074Y-78293847D02*
X147980074Y-77912895D01*
X147980074Y-77912895D02*
X147932455Y-77817657D01*
X147932455Y-77817657D02*
X147884836Y-77770038D01*
X147884836Y-77770038D02*
X147789598Y-77722419D01*
X147789598Y-77722419D02*
X147599122Y-77722419D01*
X147599122Y-77722419D02*
X147503884Y-77770038D01*
X147503884Y-77770038D02*
X147456265Y-77817657D01*
X147456265Y-77817657D02*
X147408646Y-77912895D01*
X147408646Y-77912895D02*
X147408646Y-78150990D01*
X147408646Y-78150990D02*
X147456265Y-78246228D01*
X147456265Y-78246228D02*
X147503884Y-78293847D01*
X147503884Y-78293847D02*
X147599122Y-78341466D01*
X147599122Y-78341466D02*
X147789598Y-78341466D01*
X147789598Y-78341466D02*
X147884836Y-78293847D01*
X147884836Y-78293847D02*
X147932455Y-78246228D01*
X147932455Y-78246228D02*
X147980074Y-78150990D01*
X148551503Y-78150990D02*
X148456265Y-78103371D01*
X148456265Y-78103371D02*
X148408646Y-78055752D01*
X148408646Y-78055752D02*
X148361027Y-77960514D01*
X148361027Y-77960514D02*
X148361027Y-77912895D01*
X148361027Y-77912895D02*
X148408646Y-77817657D01*
X148408646Y-77817657D02*
X148456265Y-77770038D01*
X148456265Y-77770038D02*
X148551503Y-77722419D01*
X148551503Y-77722419D02*
X148741979Y-77722419D01*
X148741979Y-77722419D02*
X148837217Y-77770038D01*
X148837217Y-77770038D02*
X148884836Y-77817657D01*
X148884836Y-77817657D02*
X148932455Y-77912895D01*
X148932455Y-77912895D02*
X148932455Y-77960514D01*
X148932455Y-77960514D02*
X148884836Y-78055752D01*
X148884836Y-78055752D02*
X148837217Y-78103371D01*
X148837217Y-78103371D02*
X148741979Y-78150990D01*
X148741979Y-78150990D02*
X148551503Y-78150990D01*
X148551503Y-78150990D02*
X148456265Y-78198609D01*
X148456265Y-78198609D02*
X148408646Y-78246228D01*
X148408646Y-78246228D02*
X148361027Y-78341466D01*
X148361027Y-78341466D02*
X148361027Y-78531942D01*
X148361027Y-78531942D02*
X148408646Y-78627180D01*
X148408646Y-78627180D02*
X148456265Y-78674800D01*
X148456265Y-78674800D02*
X148551503Y-78722419D01*
X148551503Y-78722419D02*
X148741979Y-78722419D01*
X148741979Y-78722419D02*
X148837217Y-78674800D01*
X148837217Y-78674800D02*
X148884836Y-78627180D01*
X148884836Y-78627180D02*
X148932455Y-78531942D01*
X148932455Y-78531942D02*
X148932455Y-78341466D01*
X148932455Y-78341466D02*
X148884836Y-78246228D01*
X148884836Y-78246228D02*
X148837217Y-78198609D01*
X148837217Y-78198609D02*
X148741979Y-78150990D01*
X149884836Y-78722419D02*
X149313408Y-78722419D01*
X149599122Y-78722419D02*
X149599122Y-77722419D01*
X149599122Y-77722419D02*
X149503884Y-77865276D01*
X149503884Y-77865276D02*
X149408646Y-77960514D01*
X149408646Y-77960514D02*
X149313408Y-78008133D01*
X150741979Y-78055752D02*
X150741979Y-78722419D01*
X150503884Y-77674800D02*
X150265789Y-78389085D01*
X150265789Y-78389085D02*
X150884836Y-78389085D01*
D12*
%TO.C,100R*%
X182540000Y-62630000D02*
X189080000Y-62630000D01*
X182540000Y-62960000D02*
X182540000Y-62630000D01*
X182540000Y-65040000D02*
X182540000Y-65370000D01*
X182540000Y-65370000D02*
X189080000Y-65370000D01*
X189080000Y-62630000D02*
X189080000Y-62960000D01*
X189080000Y-65370000D02*
X189080000Y-65040000D01*
%TO.C,C1*%
X155880000Y-72279000D02*
X155880000Y-71021000D01*
X157720000Y-72279000D02*
X157720000Y-71021000D01*
%TO.C,LED R*%
X153545000Y-53940000D02*
X150455000Y-53940000D01*
X151999538Y-59489999D02*
G75*
G03*
X153544830Y-53940001I462J2989999D01*
G01*
X150455170Y-53940000D02*
G75*
G03*
X152000462Y-59490000I1544830J-2560000D01*
G01*
X154500000Y-56500000D02*
G75*
G03*
X149500000Y-56500000I-2500000J0D01*
G01*
X149500000Y-56500000D02*
G75*
G03*
X154500000Y-56500000I2500000J0D01*
G01*
%TO.C,1k*%
X203670000Y-60370000D02*
X197130000Y-60370000D01*
X203670000Y-60040000D02*
X203670000Y-60370000D01*
X203670000Y-57960000D02*
X203670000Y-57630000D01*
X203670000Y-57630000D02*
X197130000Y-57630000D01*
X197130000Y-60370000D02*
X197130000Y-60040000D01*
X197130000Y-57630000D02*
X197130000Y-57960000D01*
D13*
%TO.C,S1*%
X188375000Y-75670000D02*
X188375000Y-73330000D01*
X189205000Y-77500000D02*
X193545000Y-77500000D01*
X193545000Y-71500000D02*
X189205000Y-71500000D01*
X194375000Y-73330000D02*
X194375000Y-75670000D01*
D14*
X186245000Y-72188000D02*
G75*
G03*
X186045000Y-72188000I-100000J0D01*
G01*
X186045000Y-72188000D02*
G75*
G03*
X186245000Y-72188000I100000J0D01*
G01*
D13*
%TO.C,S2*%
X203100000Y-75670000D02*
X203100000Y-73330000D01*
X203930000Y-77500000D02*
X208270000Y-77500000D01*
X208270000Y-71500000D02*
X203930000Y-71500000D01*
X209100000Y-73330000D02*
X209100000Y-75670000D01*
D14*
X200970000Y-72188000D02*
G75*
G03*
X200770000Y-72188000I-100000J0D01*
G01*
X200770000Y-72188000D02*
G75*
G03*
X200970000Y-72188000I100000J0D01*
G01*
D12*
%TO.C,1k*%
X203670000Y-63870000D02*
X197130000Y-63870000D01*
X203670000Y-63540000D02*
X203670000Y-63870000D01*
X203670000Y-61460000D02*
X203670000Y-61130000D01*
X203670000Y-61130000D02*
X197130000Y-61130000D01*
X197130000Y-63870000D02*
X197130000Y-63540000D01*
X197130000Y-61130000D02*
X197130000Y-61460000D01*
%TO.C,100R*%
X113930000Y-69930000D02*
X120470000Y-69930000D01*
X113930000Y-70260000D02*
X113930000Y-69930000D01*
X113930000Y-72340000D02*
X113930000Y-72670000D01*
X113930000Y-72670000D02*
X120470000Y-72670000D01*
X120470000Y-69930000D02*
X120470000Y-70260000D01*
X120470000Y-72670000D02*
X120470000Y-72340000D01*
%TO.C,Q2*%
X137280000Y-48290000D02*
X133680000Y-48290000D01*
X135480000Y-52740000D02*
G75*
G03*
X137318478Y-48301522I0J2600000D01*
G01*
X133641522Y-48301522D02*
G75*
G03*
X135480000Y-52740000I1838478J-1838478D01*
G01*
%TO.C,LED G*%
X137545000Y-53940000D02*
X134455000Y-53940000D01*
X135999538Y-59489999D02*
G75*
G03*
X137544830Y-53940001I462J2989999D01*
G01*
X134455170Y-53940000D02*
G75*
G03*
X136000462Y-59490000I1544830J-2560000D01*
G01*
X138500000Y-56500000D02*
G75*
G03*
X133500000Y-56500000I-2500000J0D01*
G01*
X133500000Y-56500000D02*
G75*
G03*
X138500000Y-56500000I2500000J0D01*
G01*
%TO.C,1k*%
X175830000Y-74830000D02*
X182370000Y-74830000D01*
X175830000Y-75160000D02*
X175830000Y-74830000D01*
X175830000Y-77240000D02*
X175830000Y-77570000D01*
X175830000Y-77570000D02*
X182370000Y-77570000D01*
X182370000Y-74830000D02*
X182370000Y-75160000D01*
X182370000Y-77570000D02*
X182370000Y-77240000D01*
X120570000Y-52030000D02*
X120570000Y-58570000D01*
X120240000Y-52030000D02*
X120570000Y-52030000D01*
X118160000Y-52030000D02*
X117830000Y-52030000D01*
X117830000Y-52030000D02*
X117830000Y-58570000D01*
X120570000Y-58570000D02*
X120240000Y-58570000D01*
X117830000Y-58570000D02*
X118160000Y-58570000D01*
X203670000Y-56870000D02*
X197130000Y-56870000D01*
X203670000Y-56540000D02*
X203670000Y-56870000D01*
X203670000Y-54460000D02*
X203670000Y-54130000D01*
X203670000Y-54130000D02*
X197130000Y-54130000D01*
X197130000Y-56870000D02*
X197130000Y-56540000D01*
X197130000Y-54130000D02*
X197130000Y-54460000D01*
%TO.C,Q3*%
X145280000Y-48290000D02*
X141680000Y-48290000D01*
X143480000Y-52740000D02*
G75*
G03*
X145318478Y-48301522I0J2600000D01*
G01*
X141641522Y-48301522D02*
G75*
G03*
X143480000Y-52740000I1838478J-1838478D01*
G01*
%TO.C,4k7*%
X173460000Y-61870000D02*
X166920000Y-61870000D01*
X173460000Y-61540000D02*
X173460000Y-61870000D01*
X173460000Y-59460000D02*
X173460000Y-59130000D01*
X173460000Y-59130000D02*
X166920000Y-59130000D01*
X166920000Y-61870000D02*
X166920000Y-61540000D01*
X166920000Y-59130000D02*
X166920000Y-59460000D01*
%TO.C,Q4*%
X153280000Y-48290000D02*
X149680000Y-48290000D01*
X151480000Y-52740000D02*
G75*
G03*
X153318478Y-48301522I0J2600000D01*
G01*
X149641522Y-48301522D02*
G75*
G03*
X151480000Y-52740000I1838478J-1838478D01*
G01*
%TO.C,J1*%
X212830000Y-49670000D02*
X164510000Y-49670000D01*
X212830000Y-49670000D02*
X212830000Y-52330000D01*
X164510000Y-49670000D02*
X164510000Y-52330000D01*
X215430000Y-51000000D02*
X215430000Y-52330000D01*
X215430000Y-52330000D02*
X214100000Y-52330000D01*
X212830000Y-52330000D02*
X164510000Y-52330000D01*
%TO.C,80R*%
X182540000Y-59130000D02*
X189080000Y-59130000D01*
X182540000Y-59460000D02*
X182540000Y-59130000D01*
X182540000Y-61540000D02*
X182540000Y-61870000D01*
X182540000Y-61870000D02*
X189080000Y-61870000D01*
X189080000Y-59130000D02*
X189080000Y-59460000D01*
X189080000Y-61870000D02*
X189080000Y-61540000D01*
%TO.C,LED Y*%
X145545000Y-53940000D02*
X142455000Y-53940000D01*
X143999538Y-59489999D02*
G75*
G03*
X145544830Y-53940001I462J2989999D01*
G01*
X142455170Y-53940000D02*
G75*
G03*
X144000462Y-59490000I1544830J-2560000D01*
G01*
X146500000Y-56500000D02*
G75*
G03*
X141500000Y-56500000I-2500000J0D01*
G01*
X141500000Y-56500000D02*
G75*
G03*
X146500000Y-56500000I2500000J0D01*
G01*
%TO.C,J2*%
X167170000Y-69685000D02*
X215490000Y-69685000D01*
X167170000Y-69685000D02*
X167170000Y-67025000D01*
X215490000Y-69685000D02*
X215490000Y-67025000D01*
X164570000Y-68355000D02*
X164570000Y-67025000D01*
X164570000Y-67025000D02*
X165900000Y-67025000D01*
X167170000Y-67025000D02*
X215490000Y-67025000D01*
%TO.C,Q1*%
X117590000Y-62800000D02*
X117590000Y-66400000D01*
X122040000Y-64600000D02*
G75*
G03*
X117601522Y-62761522I-2600000J0D01*
G01*
X117601522Y-66438478D02*
G75*
G03*
X122040000Y-64600000I1838478J1838478D01*
G01*
%TO.C,4k7*%
X167040000Y-62430000D02*
X173580000Y-62430000D01*
X167040000Y-62760000D02*
X167040000Y-62430000D01*
X167040000Y-64840000D02*
X167040000Y-65170000D01*
X167040000Y-65170000D02*
X173580000Y-65170000D01*
X173580000Y-62430000D02*
X173580000Y-62760000D01*
X173580000Y-65170000D02*
X173580000Y-64840000D01*
%TO.C,LED IR*%
X112736000Y-63035000D02*
X112580000Y-63035000D01*
X110420000Y-63035000D02*
X110264000Y-63035000D01*
X112578608Y-66267334D02*
G75*
G03*
X112735515Y-63035001I-1078608J1672334D01*
G01*
X112579836Y-65636129D02*
G75*
G03*
X112579999Y-63554040I-1079836J1041129D01*
G01*
X110420001Y-63554040D02*
G75*
G03*
X110420164Y-65636129I1079999J-1040960D01*
G01*
X110264485Y-63035001D02*
G75*
G03*
X110421392Y-66267334I1235515J-1559999D01*
G01*
%TO.C,120R*%
X182540000Y-55730000D02*
X189080000Y-55730000D01*
X182540000Y-56060000D02*
X182540000Y-55730000D01*
X182540000Y-58140000D02*
X182540000Y-58470000D01*
X182540000Y-58470000D02*
X189080000Y-58470000D01*
X189080000Y-55730000D02*
X189080000Y-56060000D01*
X189080000Y-58470000D02*
X189080000Y-58140000D01*
%TO.C,10k*%
X175830000Y-71530000D02*
X182370000Y-71530000D01*
X175830000Y-71860000D02*
X175830000Y-71530000D01*
X175830000Y-73940000D02*
X175830000Y-74270000D01*
X175830000Y-74270000D02*
X182370000Y-74270000D01*
X182370000Y-71530000D02*
X182370000Y-71860000D01*
X182370000Y-74270000D02*
X182370000Y-73940000D01*
%TO.C,C2*%
X168729000Y-73820000D02*
X167471000Y-73820000D01*
X168729000Y-71980000D02*
X167471000Y-71980000D01*
%TO.C,J3*%
X150870000Y-66620000D02*
X150870000Y-76840000D01*
X150870000Y-66620000D02*
X153530000Y-66620000D01*
X150870000Y-76840000D02*
X153530000Y-76840000D01*
X152200000Y-64020000D02*
X153530000Y-64020000D01*
X153530000Y-64020000D02*
X153530000Y-65350000D01*
X153530000Y-66620000D02*
X153530000Y-76840000D01*
D11*
X129000000Y-63550000D02*
X154000000Y-63550000D01*
X154000000Y-63550000D02*
X154000000Y-77250000D01*
X154000000Y-77250000D02*
X129000000Y-77250000D01*
X129000000Y-77250000D02*
X129000000Y-63550000D01*
%TD*%
M02*
