M48
; DRILL file {KiCad 7.0.10} date Wed Dec 18 16:06:37 2024
; FORMAT={-:-/ absolute / metric / decimal}
; #@! TF.CreationDate,2024-12-18T16:06:37+01:00
; #@! TF.GenerationSoftware,Kicad,Pcbnew,7.0.10
; #@! TF.FileFunction,Plated,1,2,PTH
FMAT,2
METRIC
; #@! TA.AperFunction,Plated,PTH,ComponentDrill
T1C0.750
; #@! TA.AperFunction,Plated,PTH,ComponentDrill
T2C0.800
; #@! TA.AperFunction,Plated,PTH,ComponentDrill
T3C0.900
; #@! TA.AperFunction,Plated,PTH,ComponentDrill
T4C1.000
%
G90
G05
T1
X119.44Y-63.33
X119.44Y-64.6
X119.44Y-65.87
X134.21Y-50.14
X135.48Y-50.14
X136.75Y-50.14
X142.21Y-50.14
X143.48Y-50.14
X144.75Y-50.14
X150.21Y-50.14
X151.48Y-50.14
X152.75Y-50.14
T2
X113.39Y-71.3
X119.2Y-51.49
X119.2Y-59.11
X121.01Y-71.3
X156.8Y-70.4
X156.8Y-72.9
X166.38Y-60.5
X166.5Y-63.8
X166.85Y-72.9
X169.35Y-72.9
X174.0Y-60.5
X174.12Y-63.8
X175.29Y-72.9
X175.29Y-76.2
X182.0Y-57.1
X182.0Y-60.5
X182.0Y-64.0
X182.91Y-72.9
X182.91Y-76.2
X189.62Y-57.1
X189.62Y-60.5
X189.62Y-64.0
X196.59Y-55.5
X196.59Y-59.0
X196.59Y-62.5
X204.21Y-55.5
X204.21Y-59.0
X204.21Y-62.5
T3
X111.5Y-63.325
X111.5Y-65.865
X136.0Y-55.23
X136.0Y-57.77
X144.0Y-55.23
X144.0Y-57.77
X152.0Y-55.23
X152.0Y-57.77
T4
X152.2Y-65.35
X152.2Y-67.89
X152.2Y-70.43
X152.2Y-72.97
X152.2Y-75.51
X165.84Y-51.0
X165.9Y-68.355
X168.38Y-51.0
X168.44Y-68.355
X170.92Y-51.0
X170.98Y-68.355
X173.46Y-51.0
X173.52Y-68.355
X176.0Y-51.0
X176.06Y-68.355
X178.54Y-51.0
X178.6Y-68.355
X181.08Y-51.0
X181.14Y-68.355
X183.62Y-51.0
X183.68Y-68.355
X186.16Y-51.0
X186.22Y-68.355
X188.125Y-72.25
X188.125Y-76.75
X188.7Y-51.0
X188.76Y-68.355
X191.24Y-51.0
X191.3Y-68.355
X193.78Y-51.0
X193.84Y-68.355
X194.625Y-72.25
X194.625Y-76.75
X196.32Y-51.0
X196.38Y-68.355
X198.86Y-51.0
X198.92Y-68.355
X201.4Y-51.0
X201.46Y-68.355
X202.85Y-72.25
X202.85Y-76.75
X203.94Y-51.0
X204.0Y-68.355
X206.48Y-51.0
X206.54Y-68.355
X209.02Y-51.0
X209.08Y-68.355
X209.35Y-72.25
X209.35Y-76.75
X211.56Y-51.0
X211.62Y-68.355
X214.1Y-51.0
X214.16Y-68.355
M30
