%TF.GenerationSoftware,KiCad,Pcbnew,7.0.10*%
%TF.CreationDate,2024-12-18T16:05:21+01:00*%
%TF.ProjectId,transmitter,7472616e-736d-4697-9474-65722e6b6963,rev?*%
%TF.SameCoordinates,Original*%
%TF.FileFunction,Copper,L1,Top*%
%TF.FilePolarity,Positive*%
%FSLAX46Y46*%
G04 Gerber Fmt 4.6, Leading zero omitted, Abs format (unit mm)*
G04 Created by KiCad (PCBNEW 7.0.10) date 2024-12-18 16:05:21*
%MOMM*%
%LPD*%
G01*
G04 APERTURE LIST*
%TA.AperFunction,ComponentPad*%
%ADD10C,1.600000*%
%TD*%
%TA.AperFunction,ComponentPad*%
%ADD11O,1.600000X1.600000*%
%TD*%
%TA.AperFunction,ComponentPad*%
%ADD12R,1.800000X1.800000*%
%TD*%
%TA.AperFunction,ComponentPad*%
%ADD13C,1.800000*%
%TD*%
%TA.AperFunction,ComponentPad*%
%ADD14R,1.508000X1.508000*%
%TD*%
%TA.AperFunction,ComponentPad*%
%ADD15C,1.508000*%
%TD*%
%TA.AperFunction,ComponentPad*%
%ADD16R,1.050000X1.500000*%
%TD*%
%TA.AperFunction,ComponentPad*%
%ADD17O,1.050000X1.500000*%
%TD*%
%TA.AperFunction,ComponentPad*%
%ADD18R,1.700000X1.700000*%
%TD*%
%TA.AperFunction,ComponentPad*%
%ADD19O,1.700000X1.700000*%
%TD*%
%TA.AperFunction,ComponentPad*%
%ADD20R,1.500000X1.050000*%
%TD*%
%TA.AperFunction,ComponentPad*%
%ADD21O,1.500000X1.050000*%
%TD*%
%TA.AperFunction,Conductor*%
%ADD22C,0.200000*%
%TD*%
%TA.AperFunction,Conductor*%
%ADD23C,0.400000*%
%TD*%
G04 APERTURE END LIST*
D10*
%TO.P,100R,1*%
%TO.N,Net-(D2-A)*%
X182000000Y-64000000D03*
D11*
%TO.P,100R,2*%
%TO.N,+3V3*%
X189620000Y-64000000D03*
%TD*%
D10*
%TO.P,C1,1*%
%TO.N,Net-(J3-Pin_4)*%
X156800000Y-72900000D03*
%TO.P,C1,2*%
%TO.N,/ADC_0*%
X156800000Y-70400000D03*
%TD*%
D12*
%TO.P,LED R,1,K*%
%TO.N,Net-(D4-K)*%
X152000000Y-55230000D03*
D13*
%TO.P,LED R,2,A*%
%TO.N,Net-(D4-A)*%
X152000000Y-57770000D03*
%TD*%
D10*
%TO.P,1k,1*%
%TO.N,/LED_Y*%
X204210000Y-59000000D03*
D11*
%TO.P,1k,2*%
%TO.N,Net-(Q3-B)*%
X196590000Y-59000000D03*
%TD*%
D14*
%TO.P,S1,1*%
%TO.N,Net-(R13-Pad1)*%
X188125000Y-72250000D03*
D15*
%TO.P,S1,2*%
X194625000Y-72250000D03*
%TO.P,S1,3*%
%TO.N,GND*%
X188125000Y-76750000D03*
%TO.P,S1,4*%
X194625000Y-76750000D03*
%TD*%
D14*
%TO.P,S2,1*%
%TO.N,/RUN*%
X202850000Y-72250000D03*
D15*
%TO.P,S2,2*%
X209350000Y-72250000D03*
%TO.P,S2,3*%
%TO.N,GND*%
X202850000Y-76750000D03*
%TO.P,S2,4*%
X209350000Y-76750000D03*
%TD*%
D10*
%TO.P,1k,1*%
%TO.N,/LED_R*%
X204210000Y-62500000D03*
D11*
%TO.P,1k,2*%
%TO.N,Net-(Q4-B)*%
X196590000Y-62500000D03*
%TD*%
D10*
%TO.P,100R,1*%
%TO.N,Net-(D1-A)*%
X113390000Y-71300000D03*
D11*
%TO.P,100R,2*%
%TO.N,+3V3*%
X121010000Y-71300000D03*
%TD*%
D16*
%TO.P,Q2,1,C*%
%TO.N,Net-(D2-K)*%
X136750000Y-50140000D03*
D17*
%TO.P,Q2,2,B*%
%TO.N,Net-(Q2-B)*%
X135480000Y-50140000D03*
%TO.P,Q2,3,E*%
%TO.N,GND*%
X134210000Y-50140000D03*
%TD*%
D12*
%TO.P,LED G,1,K*%
%TO.N,Net-(D2-K)*%
X136000000Y-55230000D03*
D13*
%TO.P,LED G,2,A*%
%TO.N,Net-(D2-A)*%
X136000000Y-57770000D03*
%TD*%
D10*
%TO.P,1k,1*%
%TO.N,/BUTTON*%
X175290000Y-76200000D03*
D11*
%TO.P,1k,2*%
%TO.N,Net-(R13-Pad1)*%
X182910000Y-76200000D03*
%TD*%
D10*
%TO.P,1k,1*%
%TO.N,/LED_IR*%
X119200000Y-51490000D03*
D11*
%TO.P,1k,2*%
%TO.N,Net-(Q1-B)*%
X119200000Y-59110000D03*
%TD*%
D10*
%TO.P,1k,1*%
%TO.N,/LED_G*%
X204210000Y-55500000D03*
D11*
%TO.P,1k,2*%
%TO.N,Net-(Q2-B)*%
X196590000Y-55500000D03*
%TD*%
D16*
%TO.P,Q3,1,C*%
%TO.N,Net-(D3-K)*%
X144750000Y-50140000D03*
D17*
%TO.P,Q3,2,B*%
%TO.N,Net-(Q3-B)*%
X143480000Y-50140000D03*
%TO.P,Q3,3,E*%
%TO.N,GND*%
X142210000Y-50140000D03*
%TD*%
D10*
%TO.P,4k7,1*%
%TO.N,+3V3*%
X174000000Y-60500000D03*
D11*
%TO.P,4k7,2*%
%TO.N,/ADC_0*%
X166380000Y-60500000D03*
%TD*%
D16*
%TO.P,Q4,1,C*%
%TO.N,Net-(D4-K)*%
X152750000Y-50140000D03*
D17*
%TO.P,Q4,2,B*%
%TO.N,Net-(Q4-B)*%
X151480000Y-50140000D03*
%TO.P,Q4,3,E*%
%TO.N,GND*%
X150210000Y-50140000D03*
%TD*%
D18*
%TO.P,J1,1,Pin_1*%
%TO.N,/LED_IR*%
X214100000Y-51000000D03*
D19*
%TO.P,J1,2,Pin_2*%
%TO.N,/LED_G*%
X211560000Y-51000000D03*
%TO.P,J1,3,Pin_3*%
%TO.N,GND*%
X209020000Y-51000000D03*
%TO.P,J1,4,Pin_4*%
%TO.N,/LED_Y*%
X206480000Y-51000000D03*
%TO.P,J1,5,Pin_5*%
%TO.N,/LED_R*%
X203940000Y-51000000D03*
%TO.P,J1,6,Pin_6*%
%TO.N,unconnected-(J1-Pin_6-Pad6)*%
X201400000Y-51000000D03*
%TO.P,J1,7,Pin_7*%
%TO.N,unconnected-(J1-Pin_7-Pad7)*%
X198860000Y-51000000D03*
%TO.P,J1,8,Pin_8*%
%TO.N,GND*%
X196320000Y-51000000D03*
%TO.P,J1,9,Pin_9*%
%TO.N,unconnected-(J1-Pin_9-Pad9)*%
X193780000Y-51000000D03*
%TO.P,J1,10,Pin_10*%
%TO.N,unconnected-(J1-Pin_10-Pad10)*%
X191240000Y-51000000D03*
%TO.P,J1,11,Pin_11*%
%TO.N,unconnected-(J1-Pin_11-Pad11)*%
X188700000Y-51000000D03*
%TO.P,J1,12,Pin_12*%
%TO.N,unconnected-(J1-Pin_12-Pad12)*%
X186160000Y-51000000D03*
%TO.P,J1,13,Pin_13*%
%TO.N,GND*%
X183620000Y-51000000D03*
%TO.P,J1,14,Pin_14*%
%TO.N,unconnected-(J1-Pin_14-Pad14)*%
X181080000Y-51000000D03*
%TO.P,J1,15,Pin_15*%
%TO.N,unconnected-(J1-Pin_15-Pad15)*%
X178540000Y-51000000D03*
%TO.P,J1,16,Pin_16*%
%TO.N,unconnected-(J1-Pin_16-Pad16)*%
X176000000Y-51000000D03*
%TO.P,J1,17,Pin_17*%
%TO.N,unconnected-(J1-Pin_17-Pad17)*%
X173460000Y-51000000D03*
%TO.P,J1,18,Pin_18*%
%TO.N,GND*%
X170920000Y-51000000D03*
%TO.P,J1,19,Pin_19*%
%TO.N,unconnected-(J1-Pin_19-Pad19)*%
X168380000Y-51000000D03*
%TO.P,J1,20,Pin_20*%
%TO.N,unconnected-(J1-Pin_20-Pad20)*%
X165840000Y-51000000D03*
%TD*%
D10*
%TO.P,80R,1*%
%TO.N,Net-(D3-A)*%
X182000000Y-60500000D03*
D11*
%TO.P,80R,2*%
%TO.N,+3V3*%
X189620000Y-60500000D03*
%TD*%
D12*
%TO.P,LED Y,1,K*%
%TO.N,Net-(D3-K)*%
X144000000Y-55230000D03*
D13*
%TO.P,LED Y,2,A*%
%TO.N,Net-(D3-A)*%
X144000000Y-57770000D03*
%TD*%
D18*
%TO.P,J2,1,Pin_1*%
%TO.N,/BUTTON*%
X165900000Y-68355000D03*
D19*
%TO.P,J2,2,Pin_2*%
%TO.N,unconnected-(J2-Pin_2-Pad2)*%
X168440000Y-68355000D03*
%TO.P,J2,3,Pin_3*%
%TO.N,GND*%
X170980000Y-68355000D03*
%TO.P,J2,4,Pin_4*%
%TO.N,unconnected-(J2-Pin_4-Pad4)*%
X173520000Y-68355000D03*
%TO.P,J2,5,Pin_5*%
%TO.N,unconnected-(J2-Pin_5-Pad5)*%
X176060000Y-68355000D03*
%TO.P,J2,6,Pin_6*%
%TO.N,unconnected-(J2-Pin_6-Pad6)*%
X178600000Y-68355000D03*
%TO.P,J2,7,Pin_7*%
%TO.N,unconnected-(J2-Pin_7-Pad7)*%
X181140000Y-68355000D03*
%TO.P,J2,8,Pin_8*%
%TO.N,GND*%
X183680000Y-68355000D03*
%TO.P,J2,9,Pin_9*%
%TO.N,unconnected-(J2-Pin_9-Pad9)*%
X186220000Y-68355000D03*
%TO.P,J2,10,Pin_10*%
%TO.N,/RUN*%
X188760000Y-68355000D03*
%TO.P,J2,11,Pin_11*%
%TO.N,/ADC_0*%
X191300000Y-68355000D03*
%TO.P,J2,12,Pin_12*%
%TO.N,unconnected-(J2-Pin_12-Pad12)*%
X193840000Y-68355000D03*
%TO.P,J2,13,Pin_13*%
%TO.N,GND*%
X196380000Y-68355000D03*
%TO.P,J2,14,Pin_14*%
%TO.N,unconnected-(J2-Pin_14-Pad14)*%
X198920000Y-68355000D03*
%TO.P,J2,15,Pin_15*%
%TO.N,unconnected-(J2-Pin_15-Pad15)*%
X201460000Y-68355000D03*
%TO.P,J2,16,Pin_16*%
%TO.N,+3V3*%
X204000000Y-68355000D03*
%TO.P,J2,17,Pin_17*%
%TO.N,unconnected-(J2-Pin_17-Pad17)*%
X206540000Y-68355000D03*
%TO.P,J2,18,Pin_18*%
%TO.N,GND*%
X209080000Y-68355000D03*
%TO.P,J2,19,Pin_19*%
%TO.N,unconnected-(J2-Pin_19-Pad19)*%
X211620000Y-68355000D03*
%TO.P,J2,20,Pin_20*%
%TO.N,+5V*%
X214160000Y-68355000D03*
%TD*%
D20*
%TO.P,Q1,1,C*%
%TO.N,Net-(D1-K)*%
X119440000Y-63330000D03*
D21*
%TO.P,Q1,2,B*%
%TO.N,Net-(Q1-B)*%
X119440000Y-64600000D03*
%TO.P,Q1,3,E*%
%TO.N,GND*%
X119440000Y-65870000D03*
%TD*%
D10*
%TO.P,4k7,1*%
%TO.N,/ADC_0*%
X166500000Y-63800000D03*
D11*
%TO.P,4k7,2*%
%TO.N,GND*%
X174120000Y-63800000D03*
%TD*%
D12*
%TO.P,LED IR,1,K*%
%TO.N,Net-(D1-K)*%
X111500000Y-63325000D03*
D13*
%TO.P,LED IR,2,A*%
%TO.N,Net-(D1-A)*%
X111500000Y-65865000D03*
%TD*%
D10*
%TO.P,120R,1*%
%TO.N,Net-(D4-A)*%
X182000000Y-57100000D03*
D11*
%TO.P,120R,2*%
%TO.N,+3V3*%
X189620000Y-57100000D03*
%TD*%
D10*
%TO.P,10k,1*%
%TO.N,Net-(R13-Pad1)*%
X175290000Y-72900000D03*
D11*
%TO.P,10k,2*%
%TO.N,+3V3*%
X182910000Y-72900000D03*
%TD*%
D10*
%TO.P,C2,1*%
%TO.N,/BUTTON*%
X169350000Y-72900000D03*
%TO.P,C2,2*%
%TO.N,GND*%
X166850000Y-72900000D03*
%TD*%
D18*
%TO.P,J3,1,Pin_1*%
%TO.N,GND*%
X152200000Y-65350000D03*
D19*
%TO.P,J3,2,Pin_2*%
%TO.N,+5V*%
X152200000Y-67890000D03*
%TO.P,J3,3,Pin_3*%
X152200000Y-70430000D03*
%TO.P,J3,4,Pin_4*%
%TO.N,Net-(J3-Pin_4)*%
X152200000Y-72970000D03*
%TO.P,J3,5,Pin_5*%
%TO.N,unconnected-(J3-Pin_5-Pad5)*%
X152200000Y-75510000D03*
%TD*%
D22*
%TO.N,Net-(J3-Pin_4)*%
X152270000Y-72900000D02*
X152200000Y-72970000D01*
X156800000Y-72900000D02*
X152270000Y-72900000D01*
%TO.N,/ADC_0*%
X156990000Y-70400000D02*
X156800000Y-70400000D01*
X169300000Y-66600000D02*
X166500000Y-63800000D01*
X163590000Y-63800000D02*
X156990000Y-70400000D01*
X166380000Y-60500000D02*
X166380000Y-63680000D01*
X166500000Y-63800000D02*
X163590000Y-63800000D01*
X189545000Y-66600000D02*
X169300000Y-66600000D01*
X191300000Y-68355000D02*
X189545000Y-66600000D01*
X166380000Y-63680000D02*
X166500000Y-63800000D01*
%TO.N,/BUTTON*%
X169350000Y-72900000D02*
X171990000Y-72900000D01*
X165900000Y-68355000D02*
X165900000Y-69450000D01*
X171990000Y-72900000D02*
X175290000Y-76200000D01*
X165900000Y-69450000D02*
X169350000Y-72900000D01*
D23*
%TO.N,GND*%
X166850000Y-72900000D02*
X166500000Y-72900000D01*
%TO.N,Net-(D1-K)*%
X111500000Y-63325000D02*
X119435000Y-63325000D01*
X119435000Y-63325000D02*
X119440000Y-63330000D01*
%TO.N,Net-(D1-A)*%
X111500000Y-69410000D02*
X113390000Y-71300000D01*
X111500000Y-65865000D02*
X111500000Y-69410000D01*
%TO.N,Net-(D2-K)*%
X136000000Y-55230000D02*
X136750000Y-54480000D01*
X136750000Y-54480000D02*
X136750000Y-50140000D01*
%TO.N,Net-(D2-A)*%
X182000000Y-64000000D02*
X179390000Y-64000000D01*
X137800000Y-59570000D02*
X136000000Y-57770000D01*
X179390000Y-64000000D02*
X171590000Y-56200000D01*
X154430000Y-59570000D02*
X137800000Y-59570000D01*
X171590000Y-56200000D02*
X157800000Y-56200000D01*
X157800000Y-56200000D02*
X154430000Y-59570000D01*
%TO.N,Net-(D3-K)*%
X144750000Y-54480000D02*
X144750000Y-50140000D01*
X144000000Y-55230000D02*
X144750000Y-54480000D01*
%TO.N,Net-(D3-A)*%
X182000000Y-60500000D02*
X179390000Y-60500000D01*
X154202182Y-59020000D02*
X145250000Y-59020000D01*
X179390000Y-60500000D02*
X174540000Y-55650000D01*
X174540000Y-55650000D02*
X157572182Y-55650000D01*
X145250000Y-59020000D02*
X144000000Y-57770000D01*
X157572182Y-55650000D02*
X154202182Y-59020000D01*
%TO.N,Net-(D4-K)*%
X152750000Y-54480000D02*
X152750000Y-50140000D01*
X152000000Y-55230000D02*
X152750000Y-54480000D01*
%TO.N,Net-(D4-A)*%
X180000000Y-55100000D02*
X157344364Y-55100000D01*
X157344364Y-55100000D02*
X154674364Y-57770000D01*
X154674364Y-57770000D02*
X152000000Y-57770000D01*
X182000000Y-57100000D02*
X180000000Y-55100000D01*
D22*
%TO.N,/LED_IR*%
X210825000Y-46750000D02*
X214100000Y-50025000D01*
X214100000Y-50025000D02*
X214100000Y-51000000D01*
X123940000Y-46750000D02*
X210825000Y-46750000D01*
X119200000Y-51490000D02*
X123940000Y-46750000D01*
%TO.N,/LED_G*%
X209285000Y-52300000D02*
X210585000Y-51000000D01*
X204210000Y-55500000D02*
X207410000Y-52300000D01*
X210585000Y-51000000D02*
X211560000Y-51000000D01*
X207410000Y-52300000D02*
X209285000Y-52300000D01*
%TO.N,/LED_Y*%
X203160000Y-53345000D02*
X205505000Y-51000000D01*
X203160000Y-57950000D02*
X203160000Y-53345000D01*
X205505000Y-51000000D02*
X206480000Y-51000000D01*
X204210000Y-59000000D02*
X203160000Y-57950000D01*
%TO.N,/LED_R*%
X202810000Y-61100000D02*
X202810000Y-52130000D01*
X204210000Y-62500000D02*
X202810000Y-61100000D01*
X202810000Y-52130000D02*
X203940000Y-51000000D01*
%TO.N,/RUN*%
X209350000Y-72250000D02*
X202850000Y-72250000D01*
X200600000Y-70000000D02*
X190405000Y-70000000D01*
X190405000Y-70000000D02*
X188760000Y-68355000D01*
X202850000Y-72250000D02*
X200600000Y-70000000D01*
D23*
%TO.N,+3V3*%
X204000000Y-68355000D02*
X201145000Y-65500000D01*
X121010000Y-71300000D02*
X130510000Y-61800000D01*
X204000000Y-68355000D02*
X206791000Y-71146000D01*
X160663654Y-61800000D02*
X163163654Y-59300000D01*
X178855000Y-65250000D02*
X188370000Y-65250000D01*
X189620000Y-64000000D02*
X189620000Y-60500000D01*
X201145000Y-65500000D02*
X191120000Y-65500000D01*
X209807292Y-71146000D02*
X210500000Y-71838708D01*
X130510000Y-61800000D02*
X160663654Y-61800000D01*
X189620000Y-60500000D02*
X189620000Y-57100000D01*
X191120000Y-65500000D02*
X189620000Y-64000000D01*
X206791000Y-71146000D02*
X209807292Y-71146000D01*
X172800000Y-59300000D02*
X174000000Y-60500000D01*
X188370000Y-65250000D02*
X189620000Y-64000000D01*
X174000000Y-60500000D02*
X174105000Y-60500000D01*
X163163654Y-59300000D02*
X172800000Y-59300000D01*
X210500000Y-71838708D02*
X210500000Y-72661292D01*
X209661292Y-73500000D02*
X197436292Y-73500000D01*
X197436292Y-73500000D02*
X195082292Y-71146000D01*
X184664000Y-71146000D02*
X182910000Y-72900000D01*
X195082292Y-71146000D02*
X184664000Y-71146000D01*
X174105000Y-60500000D02*
X178855000Y-65250000D01*
X210500000Y-72661292D02*
X209661292Y-73500000D01*
%TO.N,+5V*%
X183800000Y-77500000D02*
X155887057Y-77500000D01*
X152557057Y-74170000D02*
X151702943Y-74170000D01*
X185700000Y-75600000D02*
X183800000Y-77500000D01*
X214160000Y-68355000D02*
X211369000Y-71146000D01*
X155887057Y-77500000D02*
X152557057Y-74170000D01*
X209300000Y-75600000D02*
X185700000Y-75600000D01*
X211369000Y-73531000D02*
X209300000Y-75600000D01*
X151000000Y-71630000D02*
X152200000Y-70430000D01*
X151000000Y-73467057D02*
X151000000Y-71630000D01*
X151702943Y-74170000D02*
X151000000Y-73467057D01*
X152200000Y-70430000D02*
X152200000Y-67890000D01*
X211369000Y-71146000D02*
X211369000Y-73531000D01*
D22*
%TO.N,Net-(Q1-B)*%
X120500000Y-60410000D02*
X119200000Y-59110000D01*
X120500000Y-64045000D02*
X120500000Y-60410000D01*
X119440000Y-64600000D02*
X119945000Y-64600000D01*
X119945000Y-64600000D02*
X120500000Y-64045000D01*
%TO.N,Net-(Q2-B)*%
X135480000Y-50140000D02*
X135480000Y-49635000D01*
X136815000Y-48300000D02*
X155297487Y-48300000D01*
X155297487Y-48300000D02*
X160297486Y-53300000D01*
X194390000Y-53300000D02*
X196590000Y-55500000D01*
X135480000Y-49635000D02*
X136815000Y-48300000D01*
X160297486Y-53300000D02*
X194390000Y-53300000D01*
%TO.N,Net-(Q3-B)*%
X189334975Y-53650000D02*
X193584974Y-57900000D01*
X155152513Y-48650000D02*
X160152512Y-53650000D01*
X193584974Y-57900000D02*
X195490000Y-57900000D01*
X195490000Y-57900000D02*
X196590000Y-59000000D01*
X143480000Y-50140000D02*
X143480000Y-49635000D01*
X143480000Y-49635000D02*
X144465000Y-48650000D01*
X144465000Y-48650000D02*
X155152513Y-48650000D01*
X160152512Y-53650000D02*
X189334975Y-53650000D01*
%TO.N,Net-(Q4-B)*%
X193440000Y-58250000D02*
X193500000Y-58250000D01*
X151480000Y-50140000D02*
X151480000Y-49000000D01*
X189190000Y-54000000D02*
X193440000Y-58250000D01*
X155005026Y-49000000D02*
X160005026Y-54000000D01*
X151480000Y-49000000D02*
X155005026Y-49000000D01*
X160005026Y-54000000D02*
X189190000Y-54000000D01*
X193500000Y-58250000D02*
X196590000Y-61340000D01*
X196590000Y-61340000D02*
X196590000Y-62500000D01*
%TO.N,Net-(R13-Pad1)*%
X182910000Y-76200000D02*
X178590000Y-76200000D01*
X182910000Y-76200000D02*
X184175000Y-76200000D01*
X178590000Y-76200000D02*
X175290000Y-72900000D01*
X194625000Y-72250000D02*
X188125000Y-72250000D01*
X184175000Y-76200000D02*
X188125000Y-72250000D01*
%TD*%
M02*
