%TF.GenerationSoftware,KiCad,Pcbnew,7.0.10*%
%TF.CreationDate,2024-12-18T16:05:22+01:00*%
%TF.ProjectId,transmitter,7472616e-736d-4697-9474-65722e6b6963,rev?*%
%TF.SameCoordinates,Original*%
%TF.FileFunction,Soldermask,Bot*%
%TF.FilePolarity,Negative*%
%FSLAX46Y46*%
G04 Gerber Fmt 4.6, Leading zero omitted, Abs format (unit mm)*
G04 Created by KiCad (PCBNEW 7.0.10) date 2024-12-18 16:05:22*
%MOMM*%
%LPD*%
G01*
G04 APERTURE LIST*
G04 Aperture macros list*
%AMRoundRect*
0 Rectangle with rounded corners*
0 $1 Rounding radius*
0 $2 $3 $4 $5 $6 $7 $8 $9 X,Y pos of 4 corners*
0 Add a 4 corners polygon primitive as box body*
4,1,4,$2,$3,$4,$5,$6,$7,$8,$9,$2,$3,0*
0 Add four circle primitives for the rounded corners*
1,1,$1+$1,$2,$3*
1,1,$1+$1,$4,$5*
1,1,$1+$1,$6,$7*
1,1,$1+$1,$8,$9*
0 Add four rect primitives between the rounded corners*
20,1,$1+$1,$2,$3,$4,$5,0*
20,1,$1+$1,$4,$5,$6,$7,0*
20,1,$1+$1,$6,$7,$8,$9,0*
20,1,$1+$1,$8,$9,$2,$3,0*%
G04 Aperture macros list end*
%ADD10C,2.700000*%
%ADD11C,1.600000*%
%ADD12O,1.600000X1.600000*%
%ADD13R,1.800000X1.800000*%
%ADD14C,1.800000*%
%ADD15RoundRect,0.102000X-0.754000X-0.754000X0.754000X-0.754000X0.754000X0.754000X-0.754000X0.754000X0*%
%ADD16C,1.712000*%
%ADD17R,1.050000X1.500000*%
%ADD18O,1.050000X1.500000*%
%ADD19R,1.700000X1.700000*%
%ADD20O,1.700000X1.700000*%
%ADD21R,1.500000X1.050000*%
%ADD22O,1.500000X1.050000*%
G04 APERTURE END LIST*
D10*
%TO.C,REF\u002A\u002A*%
X111500000Y-79000000D03*
%TD*%
%TO.C,REF\u002A\u002A*%
X213500000Y-79000000D03*
%TD*%
%TO.C,REF\u002A\u002A*%
X111500000Y-48500000D03*
%TD*%
D11*
%TO.C,100R*%
X182000000Y-64000000D03*
D12*
X189620000Y-64000000D03*
%TD*%
D11*
%TO.C,C1*%
X156800000Y-72900000D03*
X156800000Y-70400000D03*
%TD*%
D13*
%TO.C,LED R*%
X152000000Y-55230000D03*
D14*
X152000000Y-57770000D03*
%TD*%
D11*
%TO.C,1k*%
X204210000Y-59000000D03*
D12*
X196590000Y-59000000D03*
%TD*%
D15*
%TO.C,S1*%
X188125000Y-72250000D03*
D16*
X194625000Y-72250000D03*
X188125000Y-76750000D03*
X194625000Y-76750000D03*
%TD*%
D15*
%TO.C,S2*%
X202850000Y-72250000D03*
D16*
X209350000Y-72250000D03*
X202850000Y-76750000D03*
X209350000Y-76750000D03*
%TD*%
D11*
%TO.C,1k*%
X204210000Y-62500000D03*
D12*
X196590000Y-62500000D03*
%TD*%
D11*
%TO.C,100R*%
X113390000Y-71300000D03*
D12*
X121010000Y-71300000D03*
%TD*%
D17*
%TO.C,Q2*%
X136750000Y-50140000D03*
D18*
X135480000Y-50140000D03*
X134210000Y-50140000D03*
%TD*%
D13*
%TO.C,LED G*%
X136000000Y-55230000D03*
D14*
X136000000Y-57770000D03*
%TD*%
D11*
%TO.C,1k*%
X175290000Y-76200000D03*
D12*
X182910000Y-76200000D03*
%TD*%
D11*
%TO.C,1k*%
X119200000Y-51490000D03*
D12*
X119200000Y-59110000D03*
%TD*%
D11*
%TO.C,1k*%
X204210000Y-55500000D03*
D12*
X196590000Y-55500000D03*
%TD*%
D17*
%TO.C,Q3*%
X144750000Y-50140000D03*
D18*
X143480000Y-50140000D03*
X142210000Y-50140000D03*
%TD*%
D11*
%TO.C,4k7*%
X174000000Y-60500000D03*
D12*
X166380000Y-60500000D03*
%TD*%
D17*
%TO.C,Q4*%
X152750000Y-50140000D03*
D18*
X151480000Y-50140000D03*
X150210000Y-50140000D03*
%TD*%
D19*
%TO.C,J1*%
X214100000Y-51000000D03*
D20*
X211560000Y-51000000D03*
X209020000Y-51000000D03*
X206480000Y-51000000D03*
X203940000Y-51000000D03*
X201400000Y-51000000D03*
X198860000Y-51000000D03*
X196320000Y-51000000D03*
X193780000Y-51000000D03*
X191240000Y-51000000D03*
X188700000Y-51000000D03*
X186160000Y-51000000D03*
X183620000Y-51000000D03*
X181080000Y-51000000D03*
X178540000Y-51000000D03*
X176000000Y-51000000D03*
X173460000Y-51000000D03*
X170920000Y-51000000D03*
X168380000Y-51000000D03*
X165840000Y-51000000D03*
%TD*%
D11*
%TO.C,80R*%
X182000000Y-60500000D03*
D12*
X189620000Y-60500000D03*
%TD*%
D13*
%TO.C,LED Y*%
X144000000Y-55230000D03*
D14*
X144000000Y-57770000D03*
%TD*%
D19*
%TO.C,J2*%
X165900000Y-68355000D03*
D20*
X168440000Y-68355000D03*
X170980000Y-68355000D03*
X173520000Y-68355000D03*
X176060000Y-68355000D03*
X178600000Y-68355000D03*
X181140000Y-68355000D03*
X183680000Y-68355000D03*
X186220000Y-68355000D03*
X188760000Y-68355000D03*
X191300000Y-68355000D03*
X193840000Y-68355000D03*
X196380000Y-68355000D03*
X198920000Y-68355000D03*
X201460000Y-68355000D03*
X204000000Y-68355000D03*
X206540000Y-68355000D03*
X209080000Y-68355000D03*
X211620000Y-68355000D03*
X214160000Y-68355000D03*
%TD*%
D21*
%TO.C,Q1*%
X119440000Y-63330000D03*
D22*
X119440000Y-64600000D03*
X119440000Y-65870000D03*
%TD*%
D11*
%TO.C,4k7*%
X166500000Y-63800000D03*
D12*
X174120000Y-63800000D03*
%TD*%
D13*
%TO.C,LED IR*%
X111500000Y-63325000D03*
D14*
X111500000Y-65865000D03*
%TD*%
D11*
%TO.C,120R*%
X182000000Y-57100000D03*
D12*
X189620000Y-57100000D03*
%TD*%
D11*
%TO.C,10k*%
X175290000Y-72900000D03*
D12*
X182910000Y-72900000D03*
%TD*%
D11*
%TO.C,C2*%
X169350000Y-72900000D03*
X166850000Y-72900000D03*
%TD*%
D19*
%TO.C,J3*%
X152200000Y-65350000D03*
D20*
X152200000Y-67890000D03*
X152200000Y-70430000D03*
X152200000Y-72970000D03*
X152200000Y-75510000D03*
%TD*%
M02*
